<svg width="174" height="172" viewBox="0 0 174 172" fill="none" xmlns="http://www.w3.org/2000/svg">
<path opacity="0.941" fill-rule="evenodd" clip-rule="evenodd" d="M70.2028 0.0497906C72.0769 -0.110444 73.889 0.116068 75.6391 0.729327C79.3453 4.51108 83.1203 8.21079 86.9647 11.8284C90.809 8.21079 94.5841 4.51108 98.2903 0.729327C104.752 -1.11358 107.244 1.22706 105.765 7.7512C101.914 11.6019 98.0638 15.4526 94.2131 19.3033C97.9129 23.0032 101.612 26.7026 105.312 30.4024C107.711 34.9639 106.428 37.8334 101.461 39.0099C100.316 38.8907 99.2593 38.5134 98.2903 37.8773C94.5841 34.0955 90.809 30.3961 86.9647 26.7782C83.1203 30.3961 79.3453 34.0955 75.6391 37.8773C72.8416 39.5884 70.35 39.2106 68.1642 36.7447C67.1915 34.558 67.3424 32.4437 68.6172 30.4024C72.317 26.7026 76.0164 23.0032 79.7163 19.3033C75.5498 15.2882 71.5478 11.1354 67.7111 6.84515C67.0375 3.97447 67.8679 1.70935 70.2028 0.0497906Z" fill="#555F66"/>
<path opacity="0.954" fill-rule="evenodd" clip-rule="evenodd" d="M84.6994 43.5401C86.217 43.4653 87.7269 43.541 89.2296 43.7666C110.186 51.1042 131.176 58.3526 152.2 65.5117C159.271 73.9842 166.293 82.516 173.266 91.1076C174.337 93.6056 174.11 95.9464 172.586 98.1295C166.968 100.481 161.23 102.519 155.371 104.245C154.994 118.287 154.767 132.331 154.692 146.377C154.379 147.598 153.699 148.58 152.653 149.321C130.835 157.061 108.939 164.536 86.9645 171.746C65.0032 164.501 43.1072 157.026 21.276 149.321C20.2295 148.58 19.55 147.598 19.2374 146.377C19.1617 132.331 18.9352 118.287 18.5578 104.245C12.7681 102.341 7.02973 100.302 1.34292 98.1295C-0.181599 95.9464 -0.408111 93.6056 0.663382 91.1076C7.63592 82.516 14.6578 73.9842 21.729 65.5117C42.8485 58.397 63.839 51.0734 84.6994 43.5401ZM85.6054 53.9596C86.5237 53.8862 87.4297 53.9619 88.3236 54.1861C103.576 59.4716 118.827 64.7566 134.079 70.042C118.391 75.5983 102.686 81.1103 86.9645 86.5774C71.2427 81.1103 55.5377 75.5983 39.85 70.042C55.1975 64.8014 70.449 59.4403 85.6054 53.9596ZM25.8062 76.1578C43.5145 82.1364 61.1824 88.2522 78.8101 94.5053C75.4124 99.4129 72.0147 104.321 68.617 109.229C68.2886 109.482 67.9112 109.633 67.4844 109.682C49.7268 103.838 31.9832 97.9487 14.2541 92.0137C13.6844 91.8551 13.5334 91.5529 13.8011 91.1076C17.8996 86.181 21.9012 81.1977 25.8062 76.1578ZM147.217 76.1578C148.064 76.3204 148.744 76.7735 149.255 77.5169C152.88 82.0471 156.504 86.5774 160.128 91.1076C160.396 91.5529 160.244 91.8551 159.675 92.0137C141.946 97.9487 124.202 103.838 106.445 109.682C106.018 109.633 105.64 109.482 105.312 109.229C101.914 104.321 98.5166 99.4129 95.1189 94.5053C112.546 88.4203 129.912 82.3044 147.217 76.1578ZM28.9774 107.87C42.6895 112.34 56.4316 116.719 70.2026 121.007C72.041 121.032 73.4752 120.277 74.5063 118.742C76.8109 115.19 79.2268 111.717 81.7547 108.323C82.1321 125.388 82.0569 142.452 81.5282 159.514C64.1624 153.474 46.7962 147.433 29.4304 141.393C28.9774 130.223 28.8265 119.048 28.9774 107.87ZM144.952 107.87C145.102 119.048 144.952 130.223 144.499 141.393C127.133 147.433 109.767 153.474 92.4008 159.514C91.8721 142.452 91.7969 125.388 92.1743 108.323C94.944 112.451 97.8887 116.453 101.008 120.328C101.854 120.774 102.76 121 103.726 121.007C117.558 116.9 131.3 112.521 144.952 107.87Z" fill="#555F66"/>
</svg>
