<svg width="367" height="152" fill="none" xmlns="http://www.w3.org/2000/svg"><rect x="58.764" y="86.975" width="247.986" height="65.025" rx="15.86" fill="#fff" fill-opacity=".15"/><rect x="68.279" y="96.491" width="44.407" height="45.993" rx="7.93" fill="#fff" fill-opacity=".3"/><path clip-rule="evenodd" d="M96.72 128.362a3.613 3.613 0 003.613-3.611v-2.877a2.385 2.385 0 01-.001-4.769h.001v-2.875a3.613 3.613 0 00-3.608-3.617H84.247a3.614 3.614 0 00-3.614 3.613v2.972a2.303 2.303 0 012.384 2.291 2.383 2.383 0 01-2.378 2.385h-.006v2.875a3.612 3.612 0 003.61 3.613H96.72z" stroke="#F9C037" stroke-width="1.189" stroke-linecap="round" stroke-linejoin="round"/><path clip-rule="evenodd" d="M90.877 116.271l.657 1.328a.44.44 0 00.33.242l1.467.214a.441.441 0 01.245.753l-1.06 1.033a.443.443 0 00-.129.39l.25 1.459a.441.441 0 01-.64.466l-1.31-.689a.44.44 0 00-.411 0l-1.31.689a.442.442 0 01-.641-.466l.25-1.459a.44.44 0 00-.128-.39l-1.06-1.033a.441.441 0 01.245-.753l1.466-.214a.445.445 0 00.332-.242l.655-1.328a.442.442 0 01.793 0z" stroke="#F9C037" stroke-width="1.189" stroke-linecap="round" stroke-linejoin="round"/><path d="M136.689 120.813c0-2.065-1.243-3.53-3.774-4.174l-4.33-1.088c-1.71-.444-2.376-1.288-2.376-2.398 0-1.598 1.222-2.376 3.508-2.376 2.954 0 4.441 1.244 4.441 3.731h2.065c0-3.375-2.242-5.418-6.506-5.418-3.597 0-5.55 1.443-5.55 4.152 0 1.865 1.021 3.286 3.486 3.93l4.374 1.132c1.82.467 2.62 1.399 2.62 2.62 0 1.732-1.266 2.598-3.975 2.598-3.441 0-5.195-1.421-5.195-4.418h-2.043c0 3.93 2.442 6.128 7.194 6.128 4.174 0 6.061-1.621 6.061-4.419zm1.733 4.175h7.971V123.3h-3.087v-8.06c0-.91-.444-1.287-1.243-1.287h-2.864v1.687h2.287v7.66h-3.064v1.688zm2.176-14.41c0 .866.688 1.487 1.554 1.487.888 0 1.598-.621 1.598-1.487 0-.866-.71-1.488-1.598-1.488-.866 0-1.554.622-1.554 1.488zm7.06 8.748c0 3.264 1.82 5.884 5.417 5.884 3.397 0 4.863-2.043 5.307-4.086h-1.954c-.377 1.532-1.488 2.509-3.375 2.509-2.287 0-3.419-1.643-3.486-3.797h8.77v-.71c0-3.419-2.131-5.396-5.395-5.396-3.153 0-5.284 2.021-5.284 5.596zm1.931-.888c.156-1.999 1.532-3.153 3.353-3.153 1.976 0 3.331 1.154 3.464 3.153h-6.817zm11.013 1.021c0 3.242 2.088 5.751 5.662 5.751 2.221 0 4.952-1.244 5.218-4.441h-1.976c-.311 2.021-1.643 2.753-3.242 2.753-2.486 0-3.708-1.82-3.708-4.063 0-2.22 1.222-4.041 3.708-4.041 1.599 0 2.931.733 3.242 2.753h1.976c-.266-3.197-2.997-4.441-5.218-4.441-3.574 0-5.662 2.509-5.662 5.729zm12.599 5.529h7.971V123.3h-3.086v-8.06c0-.91-.444-1.287-1.243-1.287h-2.865v1.687h2.287v7.66h-3.064v1.688zm2.176-14.41c0 .866.689 1.487 1.555 1.487.888 0 1.598-.621 1.598-1.487 0-.866-.71-1.488-1.598-1.488-.866 0-1.555.622-1.555 1.488zm7.494 11.346c0 1.154.488 3.286 3.73 3.286 2.687 0 3.864-1.577 4.285-3.264h.556l-.311 1.177v.532c0 .844.488 1.333 1.332 1.333h2.02V123.3h-1.62v-4.685c0-2.908-1.732-4.885-4.952-4.885-2.864 0-4.552 1.644-4.796 4.153h1.954c.178-1.843 1.332-2.554 2.864-2.554 1.954 0 2.865.955 2.953 2.953l-4.329.422c-2.62.244-3.686 1.466-3.686 3.22zm1.954-.245c0-1.065.71-1.443 2.065-1.576l3.996-.422c0 2.22-1.576 3.908-3.974 3.908-1.266 0-2.087-.644-2.087-1.91zm11.117 3.309h8.148V123.3h-3.086v-13.522c0-.732-.422-1.11-1.154-1.11h-3.131v1.688h2.309V123.3h-3.086v1.688zm17.286 0h7.972V123.3h-3.087v-8.06c0-.91-.444-1.287-1.243-1.287h-2.864v1.687h2.287v7.66h-3.065v1.688zm2.176-14.41c0 .866.689 1.487 1.555 1.487.888 0 1.598-.621 1.598-1.487 0-.866-.71-1.488-1.598-1.488-.866 0-1.555.622-1.555 1.488zm8.068 14.41h1.976v-4.841c0-2.975 1.599-4.729 3.908-4.729 1.865 0 2.753.866 2.753 3.153v6.417h1.954v-6.684c0-3.108-1.643-4.574-4.152-4.574-2.398 0-3.797 1.399-4.241 3.398h-.555l.333-1.333v-1.842h-1.976v11.035zm21.288-11.035l-3.33 10.48h-.555l-3.375-10.48h-1.976l3.575 11.035h4.107l3.508-11.035h-1.954zm3.335 11.035h7.971V123.3h-3.086v-8.06c0-.91-.444-1.287-1.244-1.287h-2.864v1.687h2.287v7.66h-3.064v1.688zm2.176-14.41c0 .866.688 1.487 1.554 1.487.888 0 1.599-.621 1.599-1.487 0-.866-.711-1.488-1.599-1.488-.866 0-1.554.622-1.554 1.488zM264.58 123.3l-3.908.022v-7.682h3.464v-1.687h-3.464v-3.398l-1.976.6v2.798h-2.442v1.687h2.442v7.793c0 1.066.511 1.555 1.555 1.555h4.329V123.3zm1.533-3.974c0 3.264 1.82 5.884 5.417 5.884 3.397 0 4.863-2.043 5.307-4.086h-1.954c-.377 1.532-1.488 2.509-3.375 2.509-2.287 0-3.419-1.643-3.486-3.797h8.771v-.71c0-3.419-2.132-5.396-5.396-5.396-3.153 0-5.284 2.021-5.284 5.596zm1.931-.888c.156-1.999 1.532-3.153 3.353-3.153 1.976 0 3.331 1.154 3.464 3.153h-6.817z" fill="#fff"/><g filter="url(#filter0_b_6_72)"><rect x="29.773" y="40.849" width="306.034" height="85.559" rx="20.868" fill="#fff" fill-opacity=".25"/><rect x="42.294" y="53.37" width="58.43" height="60.517" rx="10.434" fill="#fff" fill-opacity=".3"/><path d="M57.566 79.565h27.896m-6.999 6.113h.015m-6.96 0h.015m-6.978 0h.015m13.893 6.082h.015m-6.96 0h.015m-6.978 0h.015m13.268-23.783v5.15m-12.643-5.15v5.15" stroke="#F9C037" stroke-width="1.565" stroke-linecap="round" stroke-linejoin="round"/><path clip-rule="evenodd" d="M78.143 70.449H64.89c-4.597 0-7.468 2.56-7.468 7.267v14.163c0 4.78 2.871 7.4 7.468 7.4h13.237c4.61 0 7.467-2.575 7.467-7.282V77.716c.015-4.707-2.842-7.267-7.452-7.267z" stroke="#F9C037" stroke-width="1.565" stroke-linecap="round" stroke-linejoin="round"/><path d="M132.09 85.136c0-2.717-1.636-4.645-4.967-5.493l-5.697-1.431c-2.249-.585-3.126-1.695-3.126-3.156 0-2.103 1.607-3.126 4.616-3.126 3.886 0 5.843 1.636 5.843 4.909h2.718c0-4.441-2.951-7.129-8.561-7.129-4.732 0-7.303 1.9-7.303 5.463 0 2.454 1.344 4.324 4.586 5.171l5.756 1.49c2.395.614 3.447 1.841 3.447 3.448 0 2.279-1.665 3.418-5.229 3.418-4.529 0-6.837-1.87-6.837-5.814h-2.687c0 5.171 3.213 8.064 9.465 8.064 5.493 0 7.976-2.133 7.976-5.814zm2.677-1.958c0 4.295 2.396 7.742 7.129 7.742 4.47 0 6.398-2.687 6.982-5.375h-2.571c-.496 2.016-1.957 3.301-4.44 3.301-3.01 0-4.5-2.162-4.587-4.996h11.54v-.935c0-4.499-2.805-7.099-7.099-7.099-4.149 0-6.954 2.659-6.954 7.362zm2.542-1.168c.205-2.63 2.016-4.149 4.412-4.149 2.6 0 4.382 1.52 4.557 4.149h-8.969zm14.491 1.344c0 4.265 2.746 7.566 7.45 7.566 2.921 0 6.515-1.636 6.865-5.843h-2.6c-.409 2.659-2.162 3.623-4.265 3.623-3.272 0-4.879-2.396-4.879-5.346 0-2.922 1.607-5.317 4.879-5.317 2.103 0 3.856.964 4.265 3.622h2.6c-.35-4.207-3.944-5.843-6.865-5.843-4.704 0-7.45 3.301-7.45 7.538zm17.817-5.23v12.504h2.601v-12.3h7.654v-2.22h-8.21c-1.373 0-2.045.643-2.045 2.016zm11.569 5.054c0 4.295 2.396 7.742 7.129 7.742 4.47 0 6.398-2.687 6.982-5.375h-2.571c-.496 2.016-1.957 3.301-4.44 3.301-3.009 0-4.499-2.162-4.587-4.996h11.54v-.935c0-4.499-2.805-7.099-7.099-7.099-4.149 0-6.954 2.659-6.954 7.362zm2.542-1.168c.205-2.63 2.016-4.149 4.412-4.149 2.6 0 4.382 1.52 4.557 4.149h-8.969zm24.087 6.398l-5.142.03v-10.11h4.557v-2.22h-4.557v-4.47l-2.6.79v3.68h-3.214v2.22h3.214v10.255c0 1.403.672 2.045 2.045 2.045h5.697v-2.22zm12.258-5.23c0 4.295 2.396 7.742 7.129 7.742 4.47 0 6.398-2.687 6.982-5.375h-2.571c-.496 2.016-1.957 3.301-4.44 3.301-3.009 0-4.499-2.162-4.587-4.996h11.54v-.935c0-4.499-2.805-7.099-7.099-7.099-4.149 0-6.954 2.659-6.954 7.362zm2.542-1.168c.205-2.63 2.016-4.149 4.412-4.149 2.6 0 4.382 1.52 4.557 4.149h-8.969zm25.397-5.902l-4.382 13.79h-.73l-4.441-13.79h-2.6l4.703 14.52h5.405l4.616-14.52h-2.571zm4.272 7.07c0 4.295 2.396 7.742 7.129 7.742 4.47 0 6.398-2.687 6.982-5.375h-2.571c-.496 2.016-1.957 3.301-4.44 3.301-3.01 0-4.5-2.162-4.587-4.996h11.54v-.935c0-4.499-2.805-7.099-7.1-7.099-4.148 0-6.953 2.659-6.953 7.362zm2.542-1.168c.205-2.63 2.016-4.149 4.411-4.149 2.601 0 4.383 1.52 4.558 4.149h-8.969zm15.047 8.618h2.6V84.26c0-3.915 2.103-6.222 5.142-6.222 2.454 0 3.622 1.139 3.622 4.148v8.443h2.571v-8.794c0-4.09-2.162-6.018-5.463-6.018-3.155 0-4.996 1.84-5.58 4.47h-.73l.438-1.753v-2.425h-2.6v14.52zm26.985-2.22l-5.142.03v-10.11h4.558v-2.22h-4.558v-4.47l-2.6.79v3.68h-3.214v2.22h3.214v10.255c0 1.403.672 2.045 2.045 2.045h5.697v-2.22z" fill="#fff"/></g><g filter="url(#filter1_b_6_72)"><rect width="366.331" height="93.544" rx="22.816" fill="#fff" fill-opacity=".4"/><rect x="13.689" y="13.689" width="63.884" height="66.165" rx="11.408" fill="#fff" fill-opacity=".4"/><path clip-rule="evenodd" d="M42.147 51.307c5.085 0 9.43.77 9.43 3.849 0 3.078-4.316 3.87-9.43 3.87-5.087 0-9.432-.763-9.432-3.843s4.316-3.876 9.431-3.876zm.001-4.393a6.045 6.045 0 116.044-6.045 6.024 6.024 0 01-6.002 6.045h-.042z" stroke="#F9C037" stroke-width="1.711" stroke-linecap="round" stroke-linejoin="round"/><path d="M51.649 45.345a4.55 4.55 0 003.91-4.497 4.55 4.55 0 00-3.807-4.488m2.808 14.293c2.139.318 3.632 1.068 3.632 2.612 0 1.063-.703 1.752-1.84 2.183" stroke="#F9C037" stroke-width="1.711" stroke-linecap="round" stroke-linejoin="round"/><path d="M56.993 31.486v1.098h3.126v3.126h1.098v-3.126h3.126v-1.098h-3.126V28.36h-1.098v3.126h-3.126z" fill="#F9C037"/><path d="M92.125 43.855h3.003l2.715-8.625h9.103l2.715 8.625h3.035l-7.187-22.52H99.28l-7.155 22.52zm6.516-11.116l3.354-10.605h.799l3.354 10.605h-7.507zm23.655 11.435c3.641 0 5.717-1.98 6.42-4.44h.799l-.479 1.917v2.204h2.81V20.377h-2.81v9.806l.479 1.885h-.799c-.703-2.46-2.779-4.408-6.42-4.408-4.632 0-7.539 3.546-7.539 8.241s2.907 8.273 7.539 8.273zm-4.696-8.273c0-4.089 2.364-5.813 5.59-5.813s5.846 1.724 5.846 5.813c0 4.089-2.62 5.845-5.846 5.845s-5.59-1.756-5.59-5.845zm25.658 8.273c3.641 0 5.717-1.98 6.42-4.44h.799l-.48 1.917v2.204h2.811V20.377h-2.811v9.806l.48 1.885h-.799c-.703-2.46-2.779-4.408-6.42-4.408-4.632 0-7.539 3.546-7.539 8.241s2.907 8.273 7.539 8.273zm-4.696-8.273c0-4.089 2.364-5.813 5.59-5.813s5.845 1.724 5.845 5.813c0 4.089-2.619 5.845-5.845 5.845-3.226 0-5.59-1.756-5.59-5.845zm39.653 5.526l-5.622.032V30.407h4.983V27.98h-4.983v-4.888l-2.843.863v4.025h-3.513v2.427h3.513v11.212c0 1.533.735 2.236 2.236 2.236h6.229v-2.428zm2.017-5.526c0 4.727 3.354 8.273 8.433 8.273 5.047 0 8.401-3.545 8.401-8.273 0-4.695-3.354-8.241-8.401-8.241-5.079 0-8.433 3.546-8.433 8.241zm2.811 0c0-3.194 1.98-5.813 5.622-5.813 3.609 0 5.59 2.619 5.59 5.813 0 3.226-1.981 5.845-5.59 5.845-3.642 0-5.622-2.619-5.622-5.845zm27.41-5.494h3.449v11.02h-3.449v2.428h10.892v-2.428h-4.6v-11.02h4.6V27.98h-4.6v-2.236c0-2.013.607-2.94 2.619-2.94h2.875v-2.427h-2.747c-3.929 0-5.59 2.076-5.59 5.303v2.3h-3.449v2.427zm14.245-.224v13.672h2.843V30.407h8.369V27.98h-8.976c-1.501 0-2.236.702-2.236 2.203zm12.963 13.672h11.467v-2.428h-4.44V29.832c0-1.31-.639-1.852-1.789-1.852h-4.12v2.427h3.29v11.02h-4.408v2.428zm3.13-20.73c0 1.245.99 2.14 2.236 2.14 1.277 0 2.3-.895 2.3-2.14 0-1.247-1.023-2.14-2.3-2.14-1.246 0-2.236.893-2.236 2.14zm10.156 12.584c0 4.696 2.62 8.465 7.794 8.465 4.887 0 6.996-2.939 7.634-5.877h-2.811c-.543 2.204-2.14 3.61-4.855 3.61-3.29 0-4.919-2.365-5.015-5.463h12.617v-1.022c0-4.92-3.066-7.762-7.761-7.762-4.536 0-7.603 2.907-7.603 8.05zm2.779-1.277c.224-2.875 2.204-4.536 4.824-4.536 2.842 0 4.791 1.661 4.983 4.536h-9.807zm16.451 9.423h2.843V36.89c0-4.28 2.3-6.803 5.622-6.803 2.683 0 3.961 1.245 3.961 4.535v9.232h2.811V34.24c0-4.472-2.364-6.58-5.973-6.58-3.45 0-5.462 2.012-6.101 4.887h-.799l.479-1.916V27.98h-2.843v15.875zm26.302.319c3.642 0 5.718-1.98 6.42-4.44h.799l-.479 1.917v2.204h2.811V20.377h-2.811v9.806l.479 1.885h-.799c-.702-2.46-2.778-4.408-6.42-4.408-4.631 0-7.538 3.546-7.538 8.241s2.907 8.273 7.538 8.273zm-4.695-8.273c0-4.089 2.363-5.813 5.59-5.813 3.226 0 5.845 1.724 5.845 5.813 0 4.089-2.619 5.845-5.845 5.845-3.227 0-5.59-1.756-5.59-5.845zm25.306 8.273c4.089 0 6.261-1.629 6.261-4.504 0-2.46-1.629-3.769-4.312-4.535l-3.705-1.055c-1.566-.447-2.268-1.086-2.268-2.108 0-1.405 1.245-2.108 3.29-2.108 2.427 0 3.769 1.022 3.769 3.13h2.843c0-3.45-2.556-5.334-6.644-5.334-3.769 0-6.069 1.565-6.069 4.344 0 2.524 1.884 3.674 3.673 4.184l4.248 1.246c1.661.448 2.332 1.086 2.332 2.172 0 1.63-1.15 2.332-3.386 2.332-2.938 0-4.663-1.31-4.663-3.929h-2.843c0 3.93 2.747 6.165 7.474 6.165zM100.336 70.69l-1.3-4.169h-4.467l-1.3 4.169h-1.52l3.478-11.048h3.15l3.479 11.048h-1.52zm-5.36-5.485h3.652l-1.614-5.14h-.423l-1.614 5.14zm12.694-1.16c-.815 0-1.468.293-1.959.878-.491.575-.736 1.379-.736 2.413v3.354h-1.52v-7.804h1.52v1.27l-.267.986h.423c.167-.741.502-1.326 1.003-1.755.512-.438 1.175-.658 1.99-.658.93 0 1.656.282 2.178.846.533.554.8 1.369.8 2.445v4.67h-1.536v-4.45c0-.784-.152-1.343-.455-1.677-.292-.345-.773-.517-1.441-.517zm13.498 6.645h-1.52v-1.003l.266-1.003h-.423a2.919 2.919 0 01-1.081 1.567c-.523.397-1.212.595-2.069.595-1.107 0-1.995-.381-2.664-1.144-.658-.773-.987-1.75-.987-2.93 0-1.17.329-2.136.987-2.899.669-.762 1.557-1.144 2.664-1.144.857 0 1.546.199 2.069.596.532.397.893.914 1.081 1.551h.423l-.266-.987v-4.717h1.52V70.69zm-1.52-3.918c0-.909-.256-1.588-.768-2.037-.502-.46-1.17-.69-2.006-.69-.815 0-1.463.225-1.943.674-.481.45-.721 1.134-.721 2.053 0 .93.24 1.625.721 2.084.48.45 1.128.674 1.943.674.836 0 1.504-.23 2.006-.69.512-.46.768-1.149.768-2.068zm10.285-5.046c-.355 0-.642-.104-.862-.313-.219-.209-.329-.48-.329-.815 0-.324.11-.59.329-.8.22-.208.507-.313.862-.313.345 0 .632.105.862.314.23.209.345.475.345.8 0 .323-.115.595-.345.814-.23.209-.517.313-.862.313zm-2.288 11.894l1.442-2.523c.177-.303.266-.658.266-1.066v-5.97l-1.708.141v-1.316l2.147-.141c.366-.031.643.047.831.235.198.178.297.434.297.768v6.471c0 .398-.089.753-.266 1.066l-1.332 2.335h-1.677zm5.031-6.848c0-1.18.386-2.147 1.159-2.899.773-.762 1.781-1.144 3.024-1.144 1.233 0 2.236.382 3.009 1.144.773.752 1.16 1.719 1.16 2.9 0 1.19-.387 2.167-1.16 2.93-.773.762-1.776 1.143-3.009 1.143-1.243 0-2.251-.376-3.024-1.128-.773-.763-1.159-1.745-1.159-2.946zm1.52 0c0 .815.235 1.478.705 1.99s1.123.768 1.958.768c.826 0 1.468-.256 1.928-.768.47-.512.705-1.175.705-1.99 0-.804-.235-1.457-.705-1.959-.46-.511-1.102-.767-1.928-.767-.835 0-1.488.255-1.958.767-.47.502-.705 1.155-.705 1.96zm10.495-5.046c-.345 0-.632-.104-.862-.313a1.104 1.104 0 01-.329-.815c0-.324.109-.59.329-.8.23-.208.517-.313.862-.313.355 0 .647.105.877.314.23.209.345.475.345.8 0 .323-.115.595-.345.814-.23.209-.522.313-.877.313zm-2.711 8.964v-1.317h2.194v-5.312l-1.677.141v-1.316l2.037-.157c.731-.062 1.097.272 1.097 1.003v5.641h2.194v1.317h-5.845zm11.552-6.644c-.814 0-1.467.292-1.958.877-.491.575-.737 1.379-.737 2.413v3.354h-1.52v-7.804h1.52v1.27l-.266.986h.423c.167-.741.501-1.326 1.003-1.755.512-.438 1.175-.658 1.99-.658.93 0 1.656.282 2.178.846.533.554.799 1.369.799 2.445v4.67h-1.536v-4.45c0-.784-.151-1.343-.454-1.677-.292-.345-.773-.517-1.442-.517zm19.156-4.404v1.316h-3.792v9.732h-1.52v-9.731h-3.792v-1.317h9.104zm1.428 6.942v-6.942h1.52v6.566c0 1.15.214 1.99.642 2.523.439.533 1.212.8 2.319.8 1.108 0 1.881-.267 2.319-.8.45-.543.674-1.384.674-2.523v-6.566h1.52v6.942c0 2.842-1.504 4.262-4.513 4.262-2.987 0-4.481-1.42-4.481-4.262zm14.461-6.942c.606 0 1.154.037 1.645.11.491.073.993.23 1.505.47.522.23.955.543 1.3.94.345.387.627.92.846 1.599.23.679.345 1.478.345 2.397 0 .92-.115 1.719-.345 2.398-.219.679-.501 1.217-.846 1.614a3.9 3.9 0 01-1.3.94 5.434 5.434 0 01-1.505.47 11.23 11.23 0 01-1.645.11h-3.604V59.642h3.604zm0 9.731c.47 0 .867-.015 1.191-.047a4.34 4.34 0 001.081-.297c.397-.167.716-.397.956-.69.251-.292.46-.705.627-1.238.167-.543.25-1.19.25-1.943 0-.752-.083-1.395-.25-1.927-.167-.544-.376-.956-.627-1.238a2.299 2.299 0 00-.956-.674 3.596 3.596 0 00-1.081-.298 9.526 9.526 0 00-1.191-.063h-2.084v8.415h2.084zm12.41-2.6c0-1.181.366-2.148 1.097-2.9.732-.762 1.714-1.144 2.946-1.144.93 0 1.766.267 2.508.8.741.532 1.154 1.32 1.237 2.366h-1.535c-.094-.638-.34-1.102-.737-1.395-.397-.303-.888-.454-1.473-.454-.825 0-1.452.255-1.88.767-.428.502-.643 1.155-.643 1.96 0 .814.215 1.477.643 1.99.428.511 1.055.767 1.88.767.585 0 1.076-.146 1.473-.439.397-.303.643-.773.737-1.41h1.535c-.083 1.045-.496 1.833-1.237 2.366-.742.533-1.578.8-2.508.8-1.232 0-2.214-.382-2.946-1.145-.731-.762-1.097-1.739-1.097-2.93zm9.121 0c0-1.181.386-2.148 1.16-2.9.773-.762 1.781-1.144 3.024-1.144 1.233 0 2.235.382 3.009 1.144.773.752 1.159 1.719 1.159 2.9 0 1.19-.386 2.167-1.159 2.93-.774.762-1.776 1.143-3.009 1.143-1.243 0-2.251-.376-3.024-1.128-.774-.763-1.16-1.745-1.16-2.946zm1.52 0c0 .814.235 1.477.705 1.99.47.511 1.123.767 1.959.767.825 0 1.468-.256 1.927-.768.47-.512.705-1.175.705-1.99 0-.804-.235-1.457-.705-1.959-.459-.511-1.102-.767-1.927-.767-.836 0-1.489.255-1.959.767-.47.502-.705 1.155-.705 1.96zm18.243-4.044c.815 0 1.426.298 1.833.893.418.585.627 1.359.627 2.32v4.748h-1.52v-4.466c0-.784-.11-1.343-.329-1.677-.219-.334-.616-.501-1.191-.501-.742 0-1.316.302-1.724.908-.397.596-.595 1.41-.595 2.445v3.29h-1.52v-4.465c0-.784-.11-1.343-.329-1.677-.22-.334-.617-.501-1.191-.501-.742 0-1.316.302-1.724.908-.397.596-.595 1.41-.595 2.445v3.29h-1.52v-7.803h1.52v1.206l-.267 1.003h.423c.356-1.577 1.27-2.366 2.743-2.366.689 0 1.227.214 1.614.643.386.418.627.992.721 1.723h.282c.355-1.577 1.269-2.366 2.742-2.366zm14.201 0c.815 0 1.426.298 1.833.893.418.585.627 1.359.627 2.32v4.748h-1.52v-4.466c0-.784-.11-1.343-.329-1.677-.219-.334-.616-.501-1.191-.501-.742 0-1.316.302-1.724.908-.397.596-.595 1.41-.595 2.445v3.29h-1.52v-4.465c0-.784-.11-1.343-.329-1.677-.22-.334-.617-.501-1.191-.501-.742 0-1.316.302-1.724.908-.397.596-.595 1.41-.595 2.445v3.29h-1.52v-7.803h1.52v1.206l-.267 1.003h.423c.356-1.577 1.27-2.366 2.743-2.366.689 0 1.227.214 1.614.643.386.418.627.992.721 1.723h.282c.355-1.577 1.269-2.366 2.742-2.366zm7.636 6.801c.815 0 1.468-.287 1.959-.862.491-.585.737-1.4.737-2.444v-3.338h1.535v7.804h-1.535v-1.27l.266-.987h-.423c-.167.742-.507 1.332-1.019 1.77-.501.43-1.159.643-1.974.643-.93 0-1.656-.276-2.178-.83-.523-.564-.784-1.39-.784-2.476v-4.654h1.52v4.45c0 .784.152 1.348.455 1.693.303.334.783.501 1.441.501zm10.352-5.484c-.815 0-1.468.292-1.959.877-.491.575-.736 1.379-.736 2.413v3.354h-1.52v-7.804h1.52v1.27l-.267.986h.424c.167-.741.501-1.326 1.002-1.755.512-.438 1.176-.658 1.991-.658.929 0 1.655.282 2.178.846.532.554.799 1.369.799 2.445v4.67h-1.536v-4.45c0-.784-.151-1.343-.454-1.677-.293-.345-.773-.517-1.442-.517zm7.624-2.32c-.345 0-.632-.104-.862-.313a1.108 1.108 0 01-.329-.815c0-.324.11-.59.329-.8.23-.208.517-.313.862-.313.355 0 .648.105.878.314.23.209.344.475.344.8 0 .323-.114.595-.344.814-.23.209-.523.313-.878.313zm-2.711 8.964v-1.317h2.194v-5.312l-1.677.141v-1.316l2.037-.157c.732-.062 1.097.272 1.097 1.003v5.641h2.194v1.317h-5.845zm9.033-1.144l2.789-.173v1.317l-3.181.156c-.376.021-.658-.062-.846-.25-.188-.199-.282-.491-.282-.878v-5.516h-1.739v-1.316h1.739v-1.912l1.52-.47v2.382h2.476v1.316h-2.476v5.344zm10.295-6.66h1.693l-3.432 7.647v2.225c0 .71-.376 1.05-1.128 1.019l-3.181-.141v-1.317l2.773.11v-1.896l-3.432-7.647h1.677l2.319 5.704v.736h.408v-.736l2.303-5.704z" fill="#fff"/></g><defs><filter id="filter0_b_6_72" x="15.67" y="26.746" width="334.241" height="113.765" filterUnits="userSpaceOnUse" color-interpolation-filters="sRGB"><feFlood flood-opacity="0" result="BackgroundImageFix"/><feGaussianBlur in="BackgroundImage" stdDeviation="7.052"/><feComposite in2="SourceAlpha" operator="in" result="effect1_backgroundBlur_6_72"/><feBlend in="SourceGraphic" in2="effect1_backgroundBlur_6_72" result="shape"/></filter><filter id="filter1_b_6_72" x="-25.072" y="-25.072" width="416.475" height="143.689" filterUnits="userSpaceOnUse" color-interpolation-filters="sRGB"><feFlood flood-opacity="0" result="BackgroundImageFix"/><feGaussianBlur in="BackgroundImage" stdDeviation="12.536"/><feComposite in2="SourceAlpha" operator="in" result="effect1_backgroundBlur_6_72"/><feBlend in="SourceGraphic" in2="effect1_backgroundBlur_6_72" result="shape"/></filter></defs></svg>