<svg width="168" height="106" fill="none" xmlns="http://www.w3.org/2000/svg"><path d="M50.176 42.79a6.9 6.9 0 001.493.166c2.987 0 5.145-2.378 5.808-5.143.166-.718.277-1.327.222-1.769-.056-.995-.554-1.272-.886-1.327l-2.489-.608c-.442-.11-.94.11-1.05.719 0 .055-.056.165-.056.276-.055.276-.166.664-.277 1.217-.276 1.216-.94 2.433-1.659 2.267-.11-.056-.498-.111-.608-1.217-.111-1.05.166-2.765.719-5.032.553-2.267 1.106-3.87 1.714-4.81.554-.94.94-.83 1.051-.774.222.055.498.165.609.718.11.498.055 1.217-.11 2.046-.111.553-.277.996-.333 1.272-.055.11-.055.221-.055.276-.11.498.166.94.608 1.051l2.49.608c.885.221 1.549-.608 1.991-2.433.774-3.151-.608-6.911-4.204-7.74-1.991-.498-3.872.11-5.476 1.769-1.438 1.492-2.6 3.87-3.319 6.856-.72 2.93-.774 5.585-.221 7.576.608 2.156 2.046 3.538 4.038 4.036zm28.32 11.446l-6.638-.608c-2.489-.221-4.702.884-6.36 3.151-1.605 2.157-2.6 5.364-2.933 9.29-.719 8.128 1.936 13.492 6.97 13.934l6.638.609h.11c.554 0 1.052-.332 1.162-1.162l2.157-23.887c0-.83-.553-1.272-1.106-1.327zm-6.804 20.901l-1.438-.11c-.664-.055-1.05-.996-1.217-1.825-.332-1.493-.387-3.705-.166-6.525.277-2.82.72-4.976 1.328-6.414.332-.719.83-1.548 1.493-1.548h.056l1.438.11-1.494 16.312zM60.63 52.19l-3.817-.719c-.553-.11-1.161.166-1.327.996l-4.425 23.61c-.222 1.162.608 1.383.885 1.438l3.816.719h.221c.277 0 .498-.11.72-.277.22-.165.331-.442.387-.774l4.425-23.61c.055-.332.055-.664-.11-.885-.111-.166-.333-.387-.775-.498zm-14.66-3.815c-5.033-1.493-9.513 2.433-11.947 10.561-1.162 3.87-1.438 7.299-.775 9.953.664 2.82 2.379 4.755 4.923 5.53.664.22 1.328.276 1.992.276 4.148 0 7.8-3.981 9.901-10.948 2.379-8.129.885-13.824-4.093-15.372zm-2.046 13.602c-2.157 7.189-3.706 7.52-4.26 7.354-.22-.055-.829-.276-.829-1.99 0-1.493.387-3.65 1.273-6.525 1.88-6.248 3.318-7.41 4.093-7.41.11 0 .166 0 .221.056.609.166 1.66 1.327-.498 8.515zm67.043-18.966c.111.664.609.885.996.885h.221l7.91-1.604c.609-.11.941-.608.83-1.272l-.443-2.045a1.014 1.014 0 00-.442-.72c-.166-.11-.443-.22-.83-.11l-4.093.83-.83-4.148 3.043-.608c.387-.055.608-.276.719-.442.11-.166.221-.443.11-.774l-.442-2.046c-.111-.608-.609-.94-1.273-.83l-3.042.609-.664-3.373 4.094-.83c.332-.055.553-.22.719-.442.166-.221.166-.498.11-.83l-.442-2.045c-.111-.609-.664-.94-1.272-.83l-7.91 1.604c-.443.11-.941.497-.775 1.272l3.706 17.75zm-51.886 1.106c.111.166.332.387.72.442l2.876.388c.11 0 .387.055.664-.111.166-.11.387-.332.442-.774l.94-7.41 2.047.277-.885 7.299c-.055.663.221 1.05.885 1.16l2.877.388h.11c.443 0 .885-.221.94-.94l2.213-17.97c.11-.775-.332-1.162-.83-1.217l-2.876-.387c-.276-.056-.553 0-.719.165-.221.166-.332.443-.387.774l-.775 6.415-2.046-.277.774-6.414c.055-.663-.276-1.106-.885-1.161l-2.876-.387c-.498-.055-1.051.221-1.106.995l-2.213 17.97c-.055.277 0 .554.11.775zm30.202 1.77c.11.11.332.276.72.276h.054l2.932-.166c.277 0 .553-.166.72-.332.165-.22.22-.442.22-.774l-.885-18.081c0-.166-.055-.498-.22-.719-.111-.166-.388-.387-.83-.332l-2.932.166c-.498 0-.996.387-.94 1.161l.884 18.082c0 .276.111.553.277.719zm36.286 13.381c-2.102-.719-3.761-1.272-4.259-3.041-.498-1.991.608-2.267.995-2.378.388-.11 1.439-.387 2.102 2.101.111.498.277 1.106.332 1.438.056.166.056.331.056.387.166.553.663.885 1.217.719l3.152-.83c1.162-.331 1.328-2.212.886-3.926-1.107-4.147-4.481-5.971-9.072-4.755-2.379.608-4.149 1.88-5.089 3.65-.885 1.603-1.051 3.538-.553 5.584 1.327 5.143 4.923 6.193 7.799 7.078 2.268.719 3.706 1.216 4.149 2.875.166.72.221 1.327 0 1.714-.166.332-.443.553-.885.664-.443.11-.775 0-1.107-.277-.331-.331-.663-.94-.829-1.714-.166-.553-.222-1.16-.332-1.493-.055-.165-.055-.331-.055-.387a.86.86 0 00-.443-.608c-.221-.11-.498-.166-.719-.11l-3.208.829c-1.107.276-1.273 1.99-.885 3.483.719 2.71 2.821 5.42 6.527 5.42.719 0 1.438-.111 2.268-.332 2.323-.609 4.038-1.88 4.978-3.65.83-1.603.996-3.539.443-5.585-1.217-4.755-4.702-5.916-7.468-6.856zm-22.678-13.824c3.872-.442 5.476-3.926 5.144-7.133-.221-1.88-.774-2.82-1.714-2.71l-2.545.277c-.442.055-.83.443-.774 1.05 0 .056 0 .167.055.277.055.277.111.664.166 1.217.111.83.055 1.548-.111 2.046-.221.608-.553.663-.664.663-.387.055-1.438-.442-2.046-5.916-.277-2.323-.277-4.037-.055-5.088.221-1.05.608-1.105.719-1.105.829-.111 1.272 1.16 1.382 2.377.056.553.111 1.05.111 1.327v.277c.055.331.221.497.332.608.166.166.387.221.664.166l2.544-.277c.332-.055.885-.22 1.051-1.216.056-.442.056-1.05 0-1.77-.387-3.207-2.931-6.248-6.582-5.86-2.047.22-3.596 1.437-4.536 3.538-.83 1.935-1.106 4.534-.72 7.575.333 3.042 1.163 5.475 2.38 7.189 1.216 1.603 2.765 2.488 4.535 2.488.221.055.443.055.664 0zm14.105 28.09c-.055-.443-.277-.664-.443-.83-.221-.22-.553-.276-.885-.22l-3.927.608-2.987-19.796a1.515 1.515 0 00-.443-.83c-.221-.165-.553-.276-.829-.22l-3.817.552c-.442.056-.664.277-.774.443-.166.22-.222.553-.166.94l2.987 19.795-3.928.608a1.07 1.07 0 00-.829.553 1.328 1.328 0 00-.111.83l.442 2.82c.056.332.222.608.443.774.166.11.387.221.719.221h.221l13.774-2.046a1.21 1.21 0 00.774-.442c.166-.221.277-.553.221-.885l-.442-2.875zM84.912 43.675c1.107-1.77 1.715-4.313 1.77-7.41.166-6.524-2.212-10.506-6.25-10.616-2.047-.056-3.706.94-4.923 2.875-1.106 1.77-1.715 4.368-1.77 7.41-.166 6.524 2.157 10.45 6.195 10.56h.166c1.991.056 3.65-.94 4.812-2.82zm-3.319-7.52c-.055 2.267-.276 3.926-.608 4.92-.276.775-.553 1.107-.94 1.107-.388 0-.664-.608-.83-1.161-.277-1.051-.443-2.71-.387-4.977.055-2.212.276-3.87.608-4.921.166-.498.443-1.106.885-1.106.332 0 1.383.498 1.273 6.138zm13.72 19.629c-1.438-1.437-3.54-2.156-5.974-2.046-2.489.111-4.48.996-5.753 2.544-1.106 1.327-1.659 3.097-1.604 4.977l.775 18.357c0 .332.11.664.332.885.22.221.497.332.83.332h.055l3.816-.166c.553 0 1.107-.442 1.107-1.272l-.72-18.081c-.055-.72.056-1.327.332-1.714.222-.387.609-.609 1.162-.609 1.383-.055 1.66 1.328 1.715 2.212l.719 18.082c0 .331.11.663.332.884.221.222.553.332.885.332l3.817-.166c.719-.055 1.161-.553 1.106-1.272l-.775-18.358c-.22-1.99-.94-3.704-2.157-4.92z" fill="#02060E"/><path d="M71.638 58.715c-.663 0-1.161.83-1.493 1.548-.608 1.383-1.051 3.539-1.328 6.414-.276 2.82-.22 5.032.166 6.525.166.774.553 1.77 1.217 1.825l1.438.11 1.439-16.312-1.439-.11s.056 0 0 0zm8.684-28.698c-.388 0-.72.608-.886 1.106-.331 1.05-.553 2.71-.608 4.921-.055 2.212.055 3.926.387 4.977.166.497.387 1.16.83 1.16.332 0 .664-.386.94-1.105.332-1.05.553-2.71.609-4.921.11-5.64-.94-6.138-1.272-6.138zM44.423 53.462c-.056 0-.166-.055-.221-.055-.775 0-2.213 1.16-4.094 7.41-.885 2.874-1.272 5.086-1.272 6.524 0 1.77.664 1.935.83 1.99.553.166 2.102-.22 4.259-7.354 2.157-7.188 1.106-8.35.498-8.515z" fill="#fff"/><path d="M142.109 11.383c-7.08-4.148-12.667-7.631-25.002-11.004-6.915-1.99-9.902 4.368-16.761 7.299-5.919 2.93-10.897 3.815-16.428 3.815-5.145 0-10.51-.885-16.429-3.76C60.63 4.858 57.643-1.5 50.73.49 38.393 3.862 32.862 7.4 25.782 11.604 14.165 18.46 7.694 23.934 3.379 34.717c-6.306 15.538.443 33.564 13.552 46.005 17.922 17.086 42.925 25.325 67.208 25.27 24.228-.055 49.23-8.35 67.097-25.491 13.054-12.497 19.692-30.523 13.386-46.06-4.425-10.783-10.897-16.257-22.513-23.058zM108.146 23.99l7.91-1.604c.608-.11 1.161.221 1.272.83l.442 2.046c.056.331 0 .608-.11.829a1.083 1.083 0 01-.719.442l-4.094.83.664 3.373 3.042-.608c.609-.111 1.107.22 1.273.829l.442 2.046c.055.387 0 .608-.11.774a1.017 1.017 0 01-.72.442l-3.042.608.83 4.148 4.093-.83c.387-.055.664 0 .83.11.166.111.387.333.442.72l.443 2.046c.111.608-.221 1.105-.83 1.271l-8.02 1.604h-.222c-.442 0-.885-.221-.995-.885l-3.596-17.694c-.166-.83.332-1.217.775-1.327zm-19.084 1.935l2.932-.166c.442-.055.719.221.83.332.165.221.22.498.22.719l.886 18.081c0 .332-.056.553-.222.774-.166.221-.442.332-.719.332l-2.931.166h-.056c-.387 0-.608-.166-.719-.276a1.051 1.051 0 01-.276-.72l-.886-18.08c-.055-.775.443-1.162.94-1.162zm-26.773-1.548l2.877.387c.608.055.94.498.885 1.161l-.775 6.414 2.047.277.775-6.414c.055-.332.165-.609.387-.775.221-.165.442-.22.719-.165l2.876.387c.498.055.94.442.83 1.216l-2.213 17.97c-.11.72-.553.94-.94.94h-.11l-2.877-.386c-.608-.056-.94-.498-.885-1.161l.94-7.355-2.046-.276-.94 7.41c-.056.442-.277.663-.443.774-.277.166-.553.11-.664.11l-2.876-.387a1.016 1.016 0 01-.72-.442c-.11-.221-.165-.443-.165-.774l2.212-17.971c.11-.719.609-.995 1.106-.94zm-15.93 6.801c.719-2.986 1.88-5.308 3.319-6.856 1.549-1.66 3.485-2.267 5.476-1.77 3.595.885 4.923 4.645 4.204 7.741-.443 1.825-1.106 2.654-1.991 2.433l-2.49-.608c-.498-.11-.774-.553-.608-1.05 0-.056.055-.166.055-.277.056-.276.221-.719.332-1.272.221-.83.221-1.548.11-2.046-.11-.553-.387-.663-.608-.718-.11-.056-.498-.111-1.05.774-.554.884-1.162 2.543-1.716 4.81-.553 2.267-.774 3.926-.719 5.032.111 1.106.498 1.217.609 1.217.719.166 1.383-1.051 1.66-2.267.11-.553.22-.94.276-1.217 0-.11.055-.221.055-.276.166-.609.664-.83 1.051-.72l2.49.609c.331.055.829.332.884 1.327a8.09 8.09 0 01-.22 1.77c-.665 2.709-2.822 5.087-5.809 5.142-.498 0-.94-.055-1.493-.166-1.992-.498-3.43-1.88-4.038-4.092-.554-1.935-.498-4.534.22-7.52zm-6.25 43.572c-.665 0-1.328-.11-1.992-.276-2.545-.774-4.26-2.654-4.923-5.53-.664-2.654-.387-6.082.774-9.953 2.434-8.128 6.915-12.054 11.948-10.561 4.979 1.493 6.527 7.244 4.094 15.372-2.047 6.912-5.753 10.893-9.902 10.948zm21.406-21.122l-4.425 23.61a1.465 1.465 0 01-.387.775 1.052 1.052 0 01-.72.276h-.22l-3.817-.719c-.277-.055-1.051-.276-.885-1.437l4.425-23.611c.166-.83.774-1.106 1.327-.995l3.817.718c.443.056.664.332.774.498.166.221.166.498.111.885zm18.033 1.99L77.39 79.506c-.055.83-.608 1.16-1.161 1.16h-.11l-6.639-.607c-5.033-.443-7.688-5.806-6.97-13.935.333-3.87 1.384-7.077 2.932-9.29 1.66-2.266 3.873-3.372 6.362-3.15l6.637.607c.609 0 1.162.443 1.107 1.327zm.387-9.068c-4.038-.11-6.361-4.036-6.195-10.561.055-3.041.663-5.64 1.77-7.41 1.161-1.935 2.876-2.93 4.923-2.875 4.093.11 6.416 4.036 6.25 10.617-.055 3.096-.719 5.64-1.77 7.409-1.161 1.88-2.82 2.82-4.812 2.82h-.166zm17.037 33.73l-3.817.166c-.332 0-.664-.11-.885-.332-.221-.221-.332-.498-.332-.885l-.719-18.081c-.055-.83-.276-2.267-1.715-2.212-.553 0-.94.221-1.161.608-.222.387-.332.996-.332 1.714l.719 18.082c.055.885-.498 1.272-1.106 1.272l-3.817.166h-.055c-.332 0-.609-.111-.83-.332-.221-.221-.332-.498-.332-.885l-.774-18.358c-.056-1.88.498-3.65 1.604-4.976 1.272-1.549 3.263-2.433 5.752-2.544 2.49-.11 4.536.608 5.975 2.046 1.216 1.216 1.99 2.93 2.046 4.81l.775 18.358c.165.775-.332 1.328-.996 1.383zm.719-37.269c-1.217-1.659-2.047-4.147-2.379-7.188-.331-3.041-.11-5.64.72-7.576.885-2.1 2.489-3.317 4.535-3.538 3.651-.443 6.251 2.654 6.583 5.86.055.72.055 1.328 0 1.77-.166.996-.719 1.162-1.051 1.217l-2.545.276c-.221.056-.442-.055-.663-.166a1.03 1.03 0 01-.332-.608v-.276c0-.277-.056-.774-.111-1.327-.166-1.217-.553-2.489-1.383-2.378-.166 0-.498.055-.719 1.106-.221 1.05-.221 2.764.055 5.087.609 5.474 1.66 5.916 2.047 5.916.111 0 .443-.055.664-.663.166-.498.221-1.217.11-2.046-.055-.553-.11-.995-.165-1.216 0-.111-.056-.222-.056-.277-.055-.608.332-.995.775-1.05l2.544-.277c.885-.11 1.494.83 1.715 2.71.387 3.207-1.272 6.69-5.144 7.132-.222 0-.443.056-.664.056-1.77-.056-3.374-.885-4.536-2.544zm19.471 34.228a1.212 1.212 0 01-.775.442l-13.773 2.046h-.221c-.332 0-.553-.11-.719-.221a1.206 1.206 0 01-.443-.774l-.442-2.82a1.33 1.33 0 01.11-.83c.111-.221.332-.442.83-.553l3.927-.608-2.876-19.74c-.055-.387 0-.664.166-.94.111-.166.332-.387.774-.443l3.817-.553a1.06 1.06 0 01.83.222c.221.166.387.442.442.829l2.987 19.795 3.928-.608c.332-.055.663.056.885.221.166.111.332.388.442.83l.443 2.82c-.056.332-.111.608-.332.885zm15.433-5.53c-.941 1.77-2.655 3.041-4.979 3.65-.829.22-1.548.331-2.268.331-3.761 0-5.863-2.71-6.527-5.418-.387-1.494-.221-3.208.885-3.484l3.209-.83c.276-.055.497-.055.719.111.221.11.387.332.442.608 0 .056.056.221.056.387.055.332.165.94.331 1.493.222.775.498 1.383.83 1.715.332.331.664.386 1.106.276.443-.11.72-.332.885-.664.166-.387.166-.995 0-1.714-.442-1.659-1.88-2.156-4.148-2.875-2.877-.885-6.472-1.935-7.8-7.078-.553-2.046-.331-3.981.554-5.584.94-1.77 2.71-3.042 5.089-3.65 4.591-1.216 8.02.608 9.071 4.755.443 1.715.277 3.595-.885 3.926l-3.153.83c-.553.166-1.051-.166-1.217-.72 0-.054-.055-.165-.055-.386-.055-.387-.221-.995-.332-1.438-.664-2.488-1.77-2.156-2.102-2.101-.442.11-1.549.387-.996 2.378.443 1.824 2.158 2.377 4.26 3.04 2.765.94 6.25 2.047 7.523 6.857.497 2.046.331 3.982-.498 5.585z" fill="#fff"/></svg>