<svg width="107" height="107" fill="none" xmlns="http://www.w3.org/2000/svg"><path fill-rule="evenodd" clip-rule="evenodd" d="M13.766.265C8.792.976 3.892 4.579 1.711 9.13-.026 12.755.104 9.449.019 52.173c-.054 27.135.006 39.18.2 40.669.87 6.64 5.506 11.906 12.087 13.728 1.439.398 4.497.43 41.239.43 37.235 0 39.784-.028 41.294-.444 5.788-1.599 10.118-5.928 11.717-11.716.416-1.51.444-4.059.444-41.29 0-37.145-.028-39.783-.442-41.28C104.769 5.795 99.542 1.151 93.023.246c-2.447-.34-76.874-.322-79.257.019zm26.075 37.908c.445.223 3.71 3.294 7.256 6.825l6.447 6.42 6.448-6.42c3.546-3.531 6.841-6.623 7.323-6.87 1.153-.592 3.354-.592 4.507 0 1.21.62 20.432 19.803 21.097 21.055 1.665 3.128-.46 7.13-4.009 7.55-2.58.305-2.843.11-11.52-8.518l-7.828-7.783-4.243 4.238-4.244 4.238 2.596 2.662c2.695 2.763 3.139 3.543 3.142 5.512.002 1.341-1.139 3.41-2.305 4.183-1.178.78-3.383 1.032-4.865.558-.766-.244-3.161-2.496-11.543-10.847l-10.577-10.54-7.826 7.781c-8.674 8.626-8.938 8.821-11.518 8.516-3.548-.42-5.673-4.42-4.01-7.55.44-.83 20.215-20.896 20.605-20.908.064-.002.568-.172 1.119-.378 1.157-.432 2.753-.32 3.948.276z" fill="#fff"/></svg>