<svg width="16" height="16" fill="none" xmlns="http://www.w3.org/2000/svg"><g clip-path="url(#clip0_39_4)"><path d="M16.02 3.34a6.583 6.583 0 01-1.891.519 3.299 3.299 0 001.447-1.82 6.607 6.607 0 01-2.09.797A3.29 3.29 0 007.88 5.837 9.343 9.343 0 011.098 2.4a3.278 3.278 0 00-.445 1.655c0 1.141.58 2.148 1.463 2.74a3.288 3.288 0 01-1.49-.413v.041A3.295 3.295 0 003.263 9.65a3.293 3.293 0 01-1.486.055 3.298 3.298 0 003.073 2.286 6.596 6.596 0 01-4.87 1.361 9.297 9.297 0 005.044 1.48c6.053 0 9.363-5.015 9.363-9.362 0-.143-.004-.286-.01-.426A6.69 6.69 0 0016.02 3.34z" fill="#EAE7E0"/></g><defs><clipPath id="clip0_39_4"><path fill="#fff" d="M0 0h16v16H0z"/></clipPath></defs></svg>