<svg width="16" height="16" fill="none" xmlns="http://www.w3.org/2000/svg"><path d="M13.32 3.446c-1.274-1.025-3.289-1.198-3.375-1.205a.318.318 0 00-.316.188 2.121 2.121 0 00-.098.266c.843.143 1.878.429 2.814 1.01a.32.32 0 11-.337.544C10.398 3.25 8.388 3.2 8 3.2c-.387 0-2.399.05-4.007 1.049a.32.32 0 01-.337-.544c.935-.58 1.97-.867 2.813-1.009-.049-.158-.093-.258-.096-.267a.316.316 0 00-.318-.188c-.086.007-2.101.18-3.392 1.219C1.989 4.084.64 7.729.64 10.88c0 .056.015.11.043.159.93 1.635 3.468 2.062 4.047 2.081h.01a.32.32 0 00.26-.131l.585-.805c-1.579-.408-2.385-1.1-2.431-1.141a.32.32 0 01.424-.48C3.594 10.58 5.08 11.84 8 11.84c2.925 0 4.41-1.265 4.425-1.277a.32.32 0 01.423.48c-.047.04-.853.733-2.432 1.14l.585.806a.32.32 0 00.26.131h.01c.578-.019 3.117-.446 4.047-2.081a.321.321 0 00.042-.159c0-3.151-1.349-6.796-2.04-7.434zM5.92 9.6c-.619 0-1.12-.572-1.12-1.28 0-.707.501-1.28 1.12-1.28.619 0 1.12.573 1.12 1.28 0 .708-.501 1.28-1.12 1.28zm4.16 0c-.619 0-1.12-.572-1.12-1.28 0-.707.501-1.28 1.12-1.28.619 0 1.12.573 1.12 1.28 0 .708-.501 1.28-1.12 1.28z" fill="#EAE7E0"/></svg>