<svg width="375" height="789" fill="none" xmlns="http://www.w3.org/2000/svg"><path d="M453.94 592.39c4.812-1.563 9.87-3.126 15.089-4.742 40.806-12.585 96.694-29.807 119.298-79.259 27.362-59.885 5.2-118.023-13.855-156.522-29.381-59.365-84.996-117.985-156.608-165.042-56.862-37.355-129.436-53.19-209.85-45.792-93.762 8.633-187.779 75.574-186.496 205.7.182 18.39 2.08 34.615 3.908 50.306 3.266 27.979 6.099 52.137-.578 84.809-6.996 34.216-21.808 142.058 50.028 207.945 7.922 7.267 16.909 14.032 27.069 20.127 48.343 28.982 157.08 61.688 257.98.366 36.235-22.017 51.708-53.718 64.146-79.182 10.741-22.005 17.424-34.658 29.869-38.714zm-8.434-151.259c-4.241 2.916-15.926 5.899-26.238 8.531-16.165 4.135-36.279 9.26-54.669 19.504-26.69 14.854-41.328 43.449-55.493 71.089-5.483 10.687-11.137 21.754-17.249 31.394-16.14 25.426-56.017 28.387-78.89 24.176-20.825-3.833-35.797-12.976-44.53-27.164-10.579-17.225-12.043-42.656-4.018-69.772 10.572-35.749 4.595-90.214-1.797-133.665-9.956-67.763 25.332-75.941 62.689-84.57l2.67-.618c39.238-9.144 96.125 7.012 144.923 41.134 28.087 19.65 64.759 61.456 78.485 89.471 3.621 7.395 7.667 21.18-5.918 30.503l.035-.013z" fill="#45FF03" fill-opacity=".1"/><path d="M336.438 221.907l.007-.002c.681 2.074.919 5.597.957 9.618.039 4.045-.124 8.672-.276 12.996 0 0 0 0 0 0l-.005.134c-.47 13.554-1.052 30.314 2.709 46.891l-.487.11.487-.11c5.451 24.066 24.298 41.939 42.666 59.351h0l.446.424c6.947 6.592 14.134 13.411 20.151 20.264 8.201 9.349 10.544 22.061 9.791 34.499-.754 12.444-4.609 24.688-8.899 33.191-7.805 15.474-18.469 25.193-31.718 28.811h-.001c-16.056 4.368-36.396-.377-55.804-12.894-12.678-8.175-29.963-14.218-48.53-18.837-18.56-4.617-38.361-7.803-56.052-10.279l.069-.495-.069.495c-27.677-3.88-41.242-13.221-47.597-25.643-6.316-12.347-5.427-27.619-4.525-43.136l.004-.053v-.001l.128-2.225 176.548-133.109zm0 0c-2.139-6.508-6.219-9.798-10.625-11.294-4.382-1.489-9.051-1.191-12.39-.618l.085.493-.085-.492c-12.569 2.163-29.128 8.026-45.256 15.519-16.13 7.495-31.871 16.639-42.799 25.39l.312.39-.312-.39c-37.871 30.339-63.625 71.18-65.478 104.11l176.548-133.108zm119.074 28.204h0c.164 5.467 2.394 10.257 6.401 15.345 3.999 5.076 9.8 10.489 17.155 17.194 17.038 15.542 38.145 34.794 47.002 67.972 24.723 92.581-25.573 169.823-59.19 200.865-7.061 6.516-14.373 11.965-21.831 16.47-33.808 20.423-70.85 21.62-102.609 16.035-31.759-5.585-58.191-17.946-70.725-24.58l-.234.442.234-.442c-24.024-12.713-43.583-16.049-66.135-19.896l-.106-.018-.134-.023c-12.631-2.157-25.669-4.383-39.99-8.428-50.825-14.356-83.876-43.649-102.396-78.704-18.525-35.065-22.526-75.928-15.185-113.427C60.38 274.52 89.309 221.584 131.39 185.82c53.087-45.108 111.511-75.066 164.482-84.402 34.402-6.064 84.664-10.02 124.978 24.893 16.613 14.392 25.099 33.418 29.489 53.212 4.391 19.797 4.679 40.322 4.923 57.699v.015l.009.629c.064 4.221.126 8.32.24 12.245z" stroke="#000" stroke-opacity=".3"/></svg>