<svg width="1440" height="1024" fill="none" xmlns="http://www.w3.org/2000/svg"><path d="M1531.95 394.259c1.24-10.018 2.69-20.478 4.18-31.275 11.72-84.38 27.8-199.933-42.49-282.553-85.12-100.033-208.91-109.085-294.58-107.163-132.11 2.96-285.027 53.96-430.558 143.641-115.54 71.216-205.456 189.004-260.006 340.586-63.592 176.748-22.018 403.206 214.244 510.795 33.389 15.205 64.316 25.479 94.219 35.43 53.326 17.73 99.379 33.01 152.789 72.67 55.932 41.55 238.322 159.4 418.072 85.22 19.83-8.18 39.64-18.7 59.24-31.92 93.21-62.89 244.16-231.788 218.56-465.939-9.19-84.084-53.41-138.825-88.93-182.811-30.7-37.999-47.92-60.765-44.74-86.681zm-280.49-112.514c1.69 10.127-2.79 33.765-6.75 54.624-6.17 32.708-13.9 73.39-10.92 115.278 4.3 60.783 43.62 111.39 81.61 160.337 14.68 18.936 29.91 38.502 42.17 57.691 32.32 50.644 3.99 125.215-22.94 162.997-24.52 34.401-53.69 53.737-86.71 57.536-40.06 4.571-87.26-14.263-129.49-51.668-55.68-49.302-159.163-84.503-243.091-109.65-130.877-39.241-115.852-109.924-99.896-184.729l1.138-5.348c16.617-78.638 93.863-167.805 196.749-227.176 59.24-34.166 165.77-65.132 227.99-66.279 16.42-.297 44.76 4.034 50.13 36.46l.01-.073z" fill="#45FF03" fill-opacity=".1"/><path d="M891.403 91.442h.001l1.138.511c7.687 3.452 15.146 6.8 22.334 9.909l.199-.459-.198.459c9.886 4.265 20.311 4.296 32.829 1.365 12.503-2.928 27.146-8.823 45.486-16.456l.026-.01c42.472-17.665 95.212-39.598 162.802-27.556 188.45 33.556 285.67 189.891 313.41 276.969 5.83 18.296 9.51 36.146 11.35 53.464 8.38 78.51-20.81 146.587-57.77 199.327-36.96 52.741-81.67 90.107-104.27 107.172-43.2 32.633-65.71 65.109-91.72 102.623l-.11.163-.16.229c-14.56 21.003-29.61 42.704-49.04 65.191-68.95 79.831-149.94 114.888-229.075 118.757-79.151 3.87-156.492-23.456-218.142-68.454-105.805-77.237-177.121-174.319-206.25-280.711-36.701-134.104-41.511-265.091-13.614-368.818 18.104-67.317 53.456-161.703 150.827-205.174 40.17-17.927 81.841-17.18 121.389-8.382 39.537 8.796 76.914 25.63 108.514 39.86l.044.02zM763.075 294.18l-.003.014c-13.405-1.612-22.646 2.923-28.967 9.513-6.309 6.578-9.686 15.176-11.459 21.658l.482.132-.482-.132c-6.69 24.485-10.079 59.315-10.159 94.771-.079 35.458 3.152 71.588 9.725 98.678l.486-.118-.486.118c22.828 93.999 74.831 174.883 132.608 205.952l3.914 2.112h.001l.017.01c27.34 14.769 54.09 29.22 81.604 28.238 27.588-.985 55.803-17.462 86.144-64.138l-.42-.272.42.272c19.42-29.885 41.92-63 65.95-92.663 24.05-29.669 49.61-55.854 75.16-71.907 38.94-24.458 64.58-57.108 70.21-89.628v-.001c4.62-26.827-3.87-54.169-25.18-81.268-11.71-14.886-30.53-32.149-52.32-43.985-21.78-11.835-46.59-18.279-70.24-11.404l.14.48-.14-.48c-17.44 5.08-35.82 12.301-53.61 19.292l-1.13.445-.05.018c-46.932 18.469-95.285 37.496-143.543 26.986l-.106.488.106-.488c-33.2-7.218-63.048-22.45-87.136-34.743l-.257-.131c-7.689-3.929-15.904-8.127-23.234-11.467-7.309-3.33-13.809-5.842-18.045-6.352z" stroke="#000" stroke-opacity=".3"/></svg>