<svg width="805" height="865" fill="none" xmlns="http://www.w3.org/2000/svg"><path d="M599.501 344.308c.47-3.806 1.021-7.78 1.585-11.882 4.453-32.058 10.562-75.959-16.14-107.348-32.339-38.005-79.37-41.444-111.92-40.714-50.19 1.125-108.288 20.501-163.578 54.573-43.897 27.056-78.058 71.807-98.782 129.396-24.16 67.151-8.366 153.187 81.396 194.063 12.685 5.776 24.435 9.68 35.796 13.46 20.26 6.736 37.756 12.542 58.048 27.611 21.249 15.784 90.544 60.56 158.837 32.377 7.531-3.108 15.06-7.108 22.505-12.128 35.414-23.894 92.763-88.062 83.035-177.022-3.49-31.945-20.292-52.742-33.785-69.454-11.663-14.436-18.206-23.085-16.997-32.932zm-106.567-42.747c.641 3.848-1.06 12.829-2.562 20.754-2.348 12.426-5.284 27.882-4.151 43.796 1.635 23.093 16.572 42.32 31.006 60.916 5.578 7.194 11.363 14.628 16.02 21.918 12.28 19.241 1.517 47.572-8.714 61.927-9.315 13.069-20.397 20.416-32.942 21.859-15.222 1.736-33.153-5.419-49.197-19.63-21.154-18.731-60.47-32.105-92.356-41.659-49.724-14.908-44.015-41.762-37.953-70.182l.432-2.032c6.314-29.877 35.661-63.753 74.75-86.31 22.505-12.98 62.979-24.745 86.619-25.18 6.24-.113 17.004 1.532 19.046 13.851l.002-.028z" fill="#45FF03" fill-opacity=".1"/><path d="M307.422 305.983l.001-.005c1.664.2 4.176 1.176 6.947 2.439 2.793 1.272 5.92 2.87 8.84 4.362 0 0 0 0 0 0l.085.044c9.158 4.673 20.468 10.445 33.042 13.179h.001c18.231 3.971 36.515-3.218 54.373-10.245h0l.436-.171c6.754-2.655 13.747-5.403 20.389-7.337h0c9.094-2.644 18.608-.159 26.922 4.358 8.318 4.519 15.501 11.106 19.972 16.792 8.136 10.344 11.403 20.819 9.629 31.12h0c-2.161 12.472-11.976 24.942-26.816 34.262-9.664 6.071-19.351 15.989-28.477 27.251-9.123 11.257-17.661 23.828-25.038 35.179l-.419-.272.419.272c-11.555 17.776-22.354 24.129-32.978 24.508-10.537.376-20.763-5.148-31.113-10.739l-.055-.03h0l-1.487-.802-34.673-164.165zm0 0c-5.194-.625-8.8 1.136-11.266 3.707-2.448 2.553-3.749 5.877-4.429 8.362l.482.131-.482-.131c-2.552 9.339-3.84 22.603-3.87 36.086-.031 13.486 1.198 27.24 3.703 37.564l.486-.118-.486.118c8.684 35.756 28.476 66.583 50.535 78.446l-34.673-164.165zm57.514-72.479h0c3.838 1.655 7.872 1.658 12.666.535 4.78-1.119 10.368-3.37 17.33-6.267 16.139-6.712 36.101-15.013 61.687-10.454 71.443 12.721 108.314 71.996 118.834 105.016 2.206 6.931 3.599 13.692 4.298 20.251 3.171 29.728-7.879 55.518-21.894 75.518-14.017 20.001-30.975 34.174-39.547 40.648l.301.399-.301-.399c-16.454 12.427-25.03 24.8-34.908 39.05l-.049.071-.057.082c-5.535 7.982-11.245 16.216-18.614 24.747-26.145 30.267-56.834 43.545-86.813 45.011-29.99 1.466-59.305-8.888-82.679-25.948-40.152-29.311-67.198-66.139-78.243-106.48-13.933-50.911-15.752-100.619-5.172-139.96 6.875-25.562 20.274-61.294 57.13-77.748 15.181-6.775 30.94-6.499 45.925-3.165 14.99 3.335 29.166 9.719 41.178 15.129l.006.003h0l.437.196a682.571 682.571 0 008.485 3.765z" stroke="#000" stroke-opacity=".1"/></svg>