<svg width="400" height="829" fill="none" xmlns="http://www.w3.org/2000/svg"><path d="M144.527 329.966c.451-3.647.978-7.456 1.519-11.387 4.268-30.722 10.122-72.795-15.468-102.876-30.991-36.422-76.064-39.717-107.257-39.018-48.1 1.078-103.777 19.647-156.764 52.299-42.068 25.93-74.806 68.816-94.667 124.007-23.154 64.353-8.017 146.805 78.005 185.978 12.157 5.536 23.417 9.277 34.305 12.899 19.416 6.455 36.183 12.02 55.63 26.461 20.364 15.126 86.772 58.037 152.22 31.029 7.218-2.979 14.432-6.812 21.568-11.623 33.938-22.899 88.899-84.394 79.576-169.647-3.345-30.615-19.447-50.546-32.378-66.561-11.177-13.835-17.448-22.124-16.289-31.561zM42.399 289c.615 3.688-1.016 12.295-2.455 19.889-2.25 11.909-5.064 26.721-3.978 41.972 1.567 22.131 15.882 40.557 29.714 58.378 5.346 6.895 10.89 14.019 15.353 21.005 11.769 18.44 1.454 45.591-8.351 59.347-8.927 12.525-19.547 19.566-31.57 20.949-14.587 1.664-31.772-5.193-47.148-18.813-20.272-17.95-57.95-30.766-88.508-39.922-47.652-14.288-42.182-40.023-36.372-67.26l.415-1.947c6.05-28.632 34.175-61.097 71.635-82.714 21.568-12.44 60.355-23.714 83.01-24.132 5.98-.108 16.296 1.469 18.253 13.275L42.4 289z" fill="#45FF03" fill-opacity=".1"/><path d="M-135.382 293.217l.001-.005c1.599.193 4.008 1.129 6.664 2.339 2.677 1.22 5.674 2.752 8.472 4.181l.081.042c8.777 4.479 19.614 10.009 31.662 12.628h0c17.465 3.804 34.98-3.082 52.096-9.817h0l.419-.164c6.473-2.544 13.175-5.178 19.54-7.032h0c8.722-2.535 17.847-.152 25.817 4.178 7.974 4.333 14.86 10.648 19.146 16.098 7.8 9.917 10.934 19.961 9.232 29.84v.001c-2.072 11.96-11.484 23.915-25.708 32.848-9.26 5.817-18.54 15.319-27.286 26.112-8.742 10.787-16.924 22.833-23.993 33.711l-.42-.272.42.273c-11.077 17.038-21.43 23.132-31.621 23.496-10.105.361-19.909-4.936-29.825-10.293l-.056-.03h0l-1.424-.768-33.217-157.366zm0 0c-4.984-.599-8.446 1.091-10.814 3.559-2.35 2.45-3.598 5.639-4.25 8.022h0c-2.446 8.953-3.681 21.666-3.71 34.589-.028 12.925 1.149 26.108 3.55 36.004l.486-.118-.486.118c8.323 34.27 27.293 63.819 48.44 75.191l-33.216-157.365zm55.107-69.42h0c3.684 1.589 7.554 1.591 12.152.515 4.583-1.073 9.94-3.231 16.611-6.008 15.467-6.432 34.593-14.384 59.106-10.017l.087-.492-.087.492C76.05 220.476 111.38 277.274 121.46 308.914c2.114 6.641 3.448 13.119 4.118 19.403 3.038 28.483-7.548 53.194-20.978 72.358-13.431 19.165-29.681 32.747-37.895 38.95l.301.399-.301-.399c-15.771 11.912-23.992 23.772-33.458 37.428l-.047.068-.055.079c-5.305 7.649-10.776 15.539-17.837 23.714-25.053 29.003-54.458 41.725-83.182 43.129-28.736 1.405-56.825-8.516-79.222-24.863-38.476-28.087-64.392-63.378-74.975-102.033-13.352-48.788-15.095-96.421-4.956-134.119 6.587-24.496 19.427-58.731 54.737-74.495 14.544-6.49 29.641-6.226 43.999-3.032 14.363 3.195 27.947 9.313 39.46 14.498l.004.002h.001l.425.191c2.795 1.255 5.509 2.474 8.125 3.605z" stroke="#000" stroke-opacity=".3"/></svg>