<svg width="359" height="140" fill="none" xmlns="http://www.w3.org/2000/svg"><path d="M333.473 45.155c.261-2.113.567-4.32.88-6.597 2.473-17.798 5.864-42.171-8.96-59.598-17.954-21.1-44.066-23.009-62.136-22.603-27.865.624-60.12 11.381-90.816 30.297-24.371 15.022-43.337 39.867-54.843 71.84-13.413 37.28-4.644 85.046 45.19 107.74 7.043 3.207 13.566 5.374 19.874 7.472 11.247 3.74 20.961 6.964 32.227 15.33 11.797 8.763 50.268 33.622 88.183 17.975 4.182-1.725 8.361-3.946 12.495-6.733 19.661-13.266 51.501-48.891 46.1-98.28-1.938-17.735-11.266-29.282-18.757-38.56-6.475-8.015-10.108-12.816-9.437-18.283zm-59.164-23.732c.356 2.136-.588 7.122-1.422 11.521-1.304 6.9-2.934 15.48-2.305 24.316.908 12.82 9.201 23.495 17.214 33.82 3.097 3.993 6.308 8.12 8.894 12.168 6.818 10.682.842 26.411-4.838 34.38-5.171 7.256-11.324 11.335-18.288 12.136-8.451.964-18.407-3.008-27.314-10.898-11.745-10.399-33.572-17.824-51.275-23.128-27.605-8.277-24.436-23.186-21.07-38.965l.24-1.127c3.505-16.587 19.798-35.395 41.499-47.918 12.495-7.207 34.965-13.738 48.09-13.98 3.464-.063 9.44.85 10.574 7.69l.001-.015z" fill="#45FF03" fill-opacity=".1"/><path d="M219.986-19.34c8.96-3.726 19.988-8.308 34.123-5.79 39.553 7.043 59.976 39.866 65.801 58.152a56.656 56.656 0 012.378 11.2c1.752 16.432-4.354 30.697-12.117 41.774-7.763 11.078-17.158 18.931-21.907 22.517l.301.399-.301-.399c-9.164 6.922-13.942 13.816-19.425 21.725l-.032.046-.029.042c-3.074 4.433-6.238 8.996-10.322 13.724-14.477 16.759-31.459 24.102-48.04 24.912-16.592.812-32.818-4.917-45.76-14.363-22.259-16.249-37.239-36.656-43.355-58.995-7.728-28.238-8.733-55.793-2.871-77.587 3.814-14.182 11.23-33.928 31.593-43.019 8.371-3.736 17.067-3.588 25.358-1.743 8.297 1.846 16.149 5.381 22.821 8.386h.001l.246.111c1.619.727 3.192 1.434 4.71 2.09h0c2.189.944 4.481.94 7.171.31 2.675-.627 5.794-1.884 9.656-3.491zm0 0l-.192-.461.192.462s0 0 0 0zm-48.643 42.996v-.003c.964.116 2.388.673 3.923 1.373 1.555.708 3.295 1.597 4.914 2.425h.002v.001l.039.02c5.089 2.596 11.347 5.79 18.299 7.302h.001c10.044 2.187 20.129-1.77 30.058-5.678h0l.248-.097c3.746-1.472 7.636-3 11.333-4.078h0c5.127-1.49 10.472-.085 15.115 2.438 4.647 2.525 8.658 6.203 11.157 9.38 4.544 5.779 6.389 11.656 5.39 17.453h0c-1.214 7.009-6.718 13.978-14.989 19.172-5.334 3.352-10.694 8.835-15.755 15.082-5.057 6.24-9.793 13.211-13.887 19.511h0c-6.435 9.9-12.487 13.494-18.487 13.708-5.911.211-11.634-2.881-17.355-5.971l-.063-.034h0l-.825-.445-19.118-91.559zm0 0c-2.956-.355-5.027.65-6.442 2.125-1.396 1.456-2.131 3.342-2.513 4.738h0c-1.424 5.212-2.14 12.597-2.157 20.092-.016 7.498.666 15.153 2.063 20.908h0c4.828 19.883 15.842 37.068 28.166 43.695l-19.117-91.558z" stroke="#000" stroke-opacity=".3"/></svg>