<svg width="975" height="441" fill="none" xmlns="http://www.w3.org/2000/svg"><path d="M199.379 439.56V236.01c1.054 0 2.107-.117 3.044-.117h90.616c1.99 0 3.395.586 4.8 1.992 8.43 8.555 16.859 17.109 25.405 25.547 1.874 1.757 2.576 3.749 2.576 6.328a26640.58 26640.58 0 000 136.754c0 2.461-.82 4.336-2.576 5.977-8.663 8.554-17.327 17.226-25.99 25.898-.82.82-2.108 1.523-3.161 1.523-31.142.117-62.284.117-93.426 0-.117-.234-.586-.234-1.288-.352zm87.338-101.716v-59.061c0-3.867-.117-3.985-4.098-3.985-13.463 0-26.927.118-40.508 0-3.044 0-3.98 1.055-3.98 3.985.117 39.374.117 78.748 0 118.122 0 3.047 1.171 3.867 4.097 3.867 13.347-.117 26.811 0 40.157 0 4.215 0 4.215 0 4.215-4.453.117-19.452.117-38.905.117-58.475zm307.088-236.127V33.281c0-2.227.702-3.868 2.224-5.391 8.898-8.789 17.561-17.578 26.459-26.367.82-.82 2.107-1.406 3.161-1.406C646.606 0 667.562 0 688.518.117c1.054 0 2.459.586 3.161 1.29a2846.92 2846.92 0 0126.577 26.6c1.17 1.172 1.99 3.164 2.107 4.805.234 11.132 0 22.148.117 33.28 0 2.813-1.054 3.516-3.629 3.516a1463.443 1463.443 0 00-32.079 0c-2.81 0-3.512-.938-3.512-3.633.117-7.617 0-15.351.117-22.968 0-2.93-.703-4.102-3.864-3.984-13.58.117-27.161.117-40.742 0-2.81 0-3.863.82-3.863 3.75.117 39.49.117 78.982 0 118.473 0 2.93 1.053 3.75 3.863 3.75 13.698-.117 27.396-.117 41.094 0 2.809 0 3.512-1.054 3.512-3.75-.117-12.07-.117-24.257 0-36.327 0-2.578-.82-3.515-3.395-3.398-5.152.117-10.42 0-15.571.117-2.459 0-3.63-.703-3.513-3.398.117-10.781.117-21.562 0-32.343 0-2.579.937-3.516 3.513-3.399 18.263 0 36.527.117 54.791 0 2.575 0 3.395 1.055 3.395 3.516 0 28.359 0 56.834-.117 85.193 0 1.641-.937 3.633-2.107 4.805-8.781 9.023-17.679 17.812-26.576 26.601-.82.703-2.108 1.289-3.279 1.289-20.839.117-41.678.117-62.635 0-1.171 0-2.693-.586-3.512-1.406a1399.287 1399.287 0 01-26.342-26.367c-1.171-1.289-2.107-3.398-2.107-5.156-.117-23.086-.117-46.171-.117-69.256zM136.979.117h38.517c.117 1.524.234 2.93.234 4.336v73.71c0 4.335.117 4.335 4.332 4.335h34.889c4.214 0 4.214 0 4.214-4.336V.352h39.103v203.55h-39.103v-77.459c0-4.688 0-4.688-4.8-4.688h-34.537c-3.863 0-3.981.117-3.981 3.984v78.163h-38.751c-.117-67.85-.117-135.7-.117-203.785zm308.843.117h38.869v159.489c0 5.391 0 5.391 5.268 5.391h38.284c4.683 0 4.683 0 4.683-4.571V.234h35.122c4.098 0 4.098 0 4.098 4.102V144.84c0 8.671.117 17.46-.117 26.132 0 1.992-1.054 4.336-2.342 5.625-8.546 8.906-17.327 17.577-26.107 26.132-.82.82-2.342 1.406-3.513 1.406-20.839.117-41.678.117-62.518 0-1.17 0-2.575-.586-3.512-1.406a1399.287 1399.287 0 01-26.342-26.367c-1.171-1.171-1.99-3.164-1.99-4.804-.117-56.015-.117-111.912-.117-167.926 0-1.29.117-2.227.234-3.399zm-98.343 235.659h38.869c.117 1.641.234 3.164.234 4.57v155.153c0 5.156 0 5.156 5.268 5.156h38.869c4.098 0 4.098 0 4.098-4.218V236.01c1.405-.117 2.341-.234 3.395-.234 10.771 0 21.542.117 32.43-.117 3.044 0 3.629 1.054 3.629 3.75-.117 35.741 0 71.482 0 107.224v59.413c0 2.578-.702 4.453-2.576 6.328-8.663 8.554-17.327 17.226-25.99 25.897-.82.821-2.342 1.407-3.513 1.407-20.839.117-41.678.117-62.518 0-1.17 0-2.692-.586-3.512-1.407-8.781-8.671-17.444-17.46-26.225-26.132-1.756-1.64-2.341-3.398-2.341-5.742V239.76c-.117-1.172-.117-2.344-.117-3.867zm296.783.224h38.868v82.147l1.054.351c.703-.937 1.405-1.875 1.873-2.812a16463.548 16463.548 0 0044.021-77.108c1.053-1.875 2.224-2.695 4.566-2.695 12.292.117 24.702.117 36.995.117.937 0 1.873.117 3.278.117-.702 1.407-1.17 2.461-1.756 3.516-18.029 31.405-36.059 62.811-54.206 94.217-1.756 3.164-1.756 5.39 0 8.437 18.147 31.288 36.06 62.577 54.089 93.865.586 1.055 1.054 2.109 1.756 3.516-1.17.117-1.99.234-2.81.234-12.644 0-25.288 0-37.932.117-1.99 0-2.927-.586-3.863-2.226-14.635-25.664-29.386-51.327-44.138-76.991-.585-1.055-1.405-2.109-2.107-3.164-.351.117-.585.117-.937.234v81.913h-38.986c.234-67.967.235-135.7.235-203.785zm-148.565 101.61c0-22.617 0-45.234-.117-67.733 0-2.813.702-4.805 2.693-6.797 8.663-8.437 17.093-17.226 25.756-25.663.937-.938 2.459-1.524 3.747-1.524 20.722-.117 41.444-.117 62.284 0 1.287 0 2.809.703 3.746 1.524 8.664 8.554 17.327 17.343 25.991 25.898 1.756 1.757 2.575 3.515 2.575 5.976a1490.172 1490.172 0 000 32.343c0 2.812-.702 3.867-3.629 3.75a1465.945 1465.945 0 00-32.079 0c-2.809 0-3.512-.938-3.512-3.633a751.51 751.51 0 000-22.968c0-3.867-.117-3.984-4.098-3.984h-40.156c-3.864 0-4.098.234-4.098 3.984v117.771c0 3.75.234 4.101 4.098 4.101 13.463 0 26.927-.117 40.508.117 3.044 0 3.98-1.054 3.863-3.984-.117-7.734 0-15.585-.117-23.32 0-2.578.82-3.398 3.395-3.398 10.771.117 21.542.117 32.313 0 2.576 0 3.395.938 3.395 3.398-.117 11.133 0 22.383-.117 33.515 0 1.524-.819 3.516-1.99 4.571-8.781 9.023-17.796 17.929-26.81 26.835-.703.703-1.991 1.172-2.927 1.172a5630.58 5630.58 0 01-62.87 0c-1.17 0-2.575-.586-3.395-1.406-8.78-8.672-17.444-17.461-26.225-26.133-1.639-1.523-2.224-3.164-2.224-5.507.117-22.969 0-45.937 0-68.905zM383.42 203.785H280.16V.235h103.26c.117 1.171.235 2.226.235 3.398 0 10.546-.118 21.093.117 31.757 0 3.047-1.054 3.867-3.981 3.867-18.732-.117-37.347 0-56.079 0-4.566 0-4.683 0-4.683 4.805v34.57c0 3.983.117 4.1 4.215 4.1h42.381c5.151 0 5.151 0 5.151 5.04v29.179c0 4.804 0 4.804-4.683 4.804h-42.615c-4.332 0-4.449 0-4.449 4.219v34.569c0 4.453.117 4.571 4.449 4.571h55.728c4.332 0 4.331 0 4.331 4.218v31.054c.118 1.055 0 2.11-.117 3.399zM830.412 0h8.313c9.249 0 18.497.117 27.746 0 1.991 0 3.044.586 3.747 2.46 9.951 25.781 20.02 51.445 29.971 77.226.351.937.937 1.875 1.873 3.398a3794.847 3794.847 0 009.483-22.734c7.961-19.335 15.922-38.67 24.001-57.89.468-1.054 1.756-2.343 2.692-2.343 11.942-.117 23.884 0 35.825 0 .235 0 .352.117.937.352-2.576 6.328-5.268 12.773-7.844 19.1-12.293 29.649-24.469 59.18-36.762 88.827-2.692 6.445-5.385 12.773-7.844 19.218-.936 2.344-1.522 4.922-1.522 7.5-.117 21.562-.117 43.124-.117 64.686 0 1.289-.117 2.578-.234 4.102h-38.752v-3.633c0-19.335-.234-38.788.117-58.124.117-7.734-1.404-14.765-4.214-21.913-13.815-34.921-27.396-69.843-40.977-104.88-2.224-4.923-4.214-9.844-6.439-15.352zM37.347 203.667V43.827c0-4.804 0-4.804-4.8-4.804H0V.117h114.148c.117.938.234 1.875.234 2.93 0 10.898 0 21.796.117 32.694 0 2.578-.819 3.399-3.395 3.399-9.951-.117-19.903 0-29.854 0-4.449 0-4.566 0-4.566 4.453v154.801c0 1.055-.117 2.109 0 3.164.117 1.875-.702 2.461-2.575 2.461-11.59-.117-23.298 0-34.889 0-.585 0-1.053-.234-1.873-.352zm809.456.118H743.426V.235h38.635c.117 1.523.234 3.163.234 4.687v154.801c0 5.156 0 5.156 5.151 5.156h55.142c4.098 0 4.215 0 4.215 4.102v34.804z" fill="#fff"/></svg>