<svg width="16" height="16" fill="none" xmlns="http://www.w3.org/2000/svg"><g clip-path="url(#clip0_606_4176)"><path fill-rule="evenodd" clip-rule="evenodd" d="M12.256 15.186c.214.152.491.19.738.097a.774.774 0 00.482-.56c.58-2.723 1.985-9.614 2.512-12.091a.52.52 0 00-.173-.505.534.534 0 00-.531-.094C12.488 3.068 3.88 6.298.36 7.6a.551.551 0 00-.36.533c.008.236.166.44.395.509 1.578.472 3.65 1.129 3.65 1.129s.967 2.923 1.472 4.41c.063.186.21.333.402.384a.578.578 0 00.54-.138l2.065-1.949s2.381 1.746 3.732 2.708zm-7.34-5.785l1.12 3.692.248-2.338 6.79-6.124a.185.185 0 00.022-.251.19.19 0 00-.25-.043l-7.93 5.064z" fill="#fff"/></g><defs><clipPath id="clip0_606_4176"><path fill="#fff" d="M0 0h16v16H0z"/></clipPath></defs></svg>