<svg width="112" height="44" fill="none" xmlns="http://www.w3.org/2000/svg"><path d="M37.065 11.016c-7.018 0-10.624 4.909-10.624 11.271 0 7.756 5.37 10.518 10.262 10.518 3.65 0 6.728-1.165 9.041-3.518l-2.998-3.962c-1.624 1.849-3.634 2.64-6.071 2.64-2.172 0-4.183-1.457-4.542-3.399 3.465.896 10.594-.073 14.23-2.408.125-6.548-3.317-11.143-9.299-11.143zm-4.931 9.37c.247-2.219 1.562-4.462 4.84-4.462 2.202 0 3.667 1.46 3.934 3.249-2.445 1-5.565 1.377-8.775 1.213zm78.03.269c.097-.171.201-.349.308-.532.839-1.433 1.988-3.394 1.336-5.404-.79-2.434-2.955-3.517-4.513-4.12-2.403-.928-5.539-1.146-8.83-.612-2.612.424-5.109 1.876-7.22 4.2-2.46 2.711-3.396 7.098.063 10.791.488.522.97.937 1.434 1.339.83.715 1.546 1.333 2.214 2.444.699 1.164 3.11 4.641 6.902 4.641.418 0 .853-.042 1.305-.134 2.148-.44 6.125-2.36 7.406-6.767.459-1.582.069-2.897-.244-3.953-.27-.912-.411-1.45-.161-1.893zm-4.22-4.111c-.045.194-.301.587-.528.933-.354.543-.796 1.218-1.054 1.995-.375 1.126-.043 2.33.278 3.494.124.45.253.915.331 1.352.206 1.152-.859 2.285-1.626 2.765-.698.437-1.367.569-1.991.392-.756-.216-1.467-.906-1.95-1.893-.636-1.302-2.24-2.705-3.566-3.781-2.067-1.68-1.27-2.84-.426-4.07l.06-.087c.885-1.293 2.94-2.325 5.236-2.63 1.322-.174 3.473.06 4.603.502.298.116.777.405.632 1.029l.001-.002zm-20.55 7.976c-.16-.264-.32-.532-.49-.802-.701-1.115-1.647-1.924-2.563-2.707-.354-.302-.7-.6-1.023-.905.53-.67.99-1.349 1.38-2.034.7-1.228 1.81-2.013 2.882-2.772 1.222-.865 2.486-1.76 3.048-3.268l.417-1.117L84.29 9.03l-.488 1.032c-.587 1.24-1.472 1.796-2.499 2.438-.978.613-2.087 1.308-2.93 2.63-.284.446-.536.867-.779 1.276-.586.983-1.08 1.812-1.758 2.504a51.67 51.67 0 00-.12-1.05c-.972-7.886-.65-10.999 1.438-13.878l.734-1.013-1.033-.706a32.815 32.815 0 00-2.83-1.766L73.135 0l-.646.79c-2.855 3.492-3.549 8.432-2.396 17.051.635 4.752.397 8.21-.266 12.93l-.195 1.387h5.806l.155-1.447c.2-1.872.394-3.694.462-5.702a36.019 36.019 0 001.566-1.213l.14.113c1.123.907 2.183 1.765 2.946 3.766 1.134 2.976 3.047 4.782 6.204 5.854l1.104.375 2.13-5.482-1.164-.427c-1.916-.703-2.617-1.866-3.587-3.474v-.001zm-25.21-2.19a40.441 40.441 0 00-1.53-1.78c3.233-3.148 6.408-5.592 6.456-5.63l1.038-.795-3.46-3.897-.913.891c-.227.222-4.166 4.066-7.294 7.377V.706h-5.51v31.467h5.51V25.14c.248-.322.509-.646.779-.968.773.702 1.534 1.506 2.319 2.337 2.54 2.69 5.17 5.473 8.995 5.492l1.047.005.762-4.883-1.254-.149c-3.453-.41-5.071-2.371-6.945-4.642zm-34.85 8.072c-2.214-2.01-5.242-2.824-10.609-2.418l.37-1.508c5.948-.428 8.621-3.99 8.745-7.574a7.52 7.52 0 00-1.789-5.129l3.487-3.618-4.535-3.724-3.5 4.504c-.983-.28-2.129-.46-3.458-.479h-.024c-6.668.088-9.768 4.254-9.826 8.087-.031 2.012.744 3.934 2.18 5.41.756.777 2.045 1.445 3.725 2.025l-1.347 6.355c6.186-.827 12.743-.82 12.664 3.083-.049 2.456-3.454 3.702-7.384 3.702-4.58 0-7.83-3.215-8.215-7.093L0 33.41c1.698 6.823 6.744 10.486 14.033 10.486 7.96 0 13.519-3.403 13.519-8.276 0-2.133-.767-3.901-2.218-5.218zm-11.281-8.75h-.036c-1.328.024-2.402-.34-3.106-1.05a2.748 2.748 0 01-.806-2.023c.037-1.464 1.283-3.01 3.91-2.96h.033c1.355-.023 2.438.354 3.143 1.093.545.571.817 1.318.766 2.102-.094 1.456-1.333 2.905-3.903 2.838h-.001z" fill="#000"/></svg>