<svg width="14" height="20" fill="none" xmlns="http://www.w3.org/2000/svg"><path fill-rule="evenodd" clip-rule="evenodd" d="M3.532.937a6.89 6.89 0 017.034.058C12.71 2.327 14.012 4.705 14 7.26c-.05 2.54-1.447 4.929-3.193 6.775a18.727 18.727 0 01-3.358 2.82A1.174 1.174 0 017.04 17a.82.82 0 01-.39-.119 18.515 18.515 0 01-4.839-4.547A9.28 9.28 0 010 7.134C-.001 4.572 1.347 2.206 3.532.937zm1.262 7.258a2.378 2.378 0 002.198 1.497 2.339 2.339 0 001.683-.702 2.43 2.43 0 00.694-1.712 2.423 2.423 0 00-1.462-2.243 2.346 2.346 0 00-2.594.52 2.455 2.455 0 00-.519 2.64z" fill="#130F26"/><ellipse opacity=".4" cx="7" cy="19" rx="5" ry="1" fill="#130F26"/></svg>