<svg width="41" height="29" fill="none" xmlns="http://www.w3.org/2000/svg"><path fill-rule="evenodd" clip-rule="evenodd" d="M27.72 25.592a142.957 142.957 0 002.228 2.694c7.46-.233 10.33-5.054 10.33-5.054 0-10.706-4.862-19.384-4.862-19.384-4.86-3.59-9.485-3.49-9.485-3.49l-.473.531c5.739 1.73 8.406 4.223 8.406 4.223A27.82 27.82 0 0023.703 1.92c-2.431-.266-4.76-.2-6.82.066-.176 0-.327.026-.498.054l-.075.013c-1.182.1-4.051.532-7.663 2.094-1.25.566-1.992.965-1.992.965S9.457 2.485 15.533.756l-.337-.399S10.57.257 5.71 3.848c0 0-4.861 8.678-4.861 19.384 0 0 2.835 4.82 10.296 5.053 0 0 1.249-1.496 2.261-2.76C9.12 24.264 7.5 21.604 7.5 21.604s.338.232.945.565a.496.496 0 00.135.1c.05.033.101.058.152.083.05.025.101.05.152.083.844.465 1.688.831 2.464 1.13a28.673 28.673 0 004.963 1.43c2.531.465 5.502.632 8.743.033 1.586-.266 3.207-.731 4.895-1.43a19.428 19.428 0 003.882-1.961s-1.688 2.726-6.11 3.956zM10.807 16.45c0-2.028 1.52-3.69 3.444-3.69s3.476 1.662 3.443 3.69c0 2.028-1.52 3.69-3.443 3.69-1.891 0-3.444-1.662-3.444-3.69zm12.322 0c0-2.028 1.519-3.69 3.443-3.69 1.924 0 3.443 1.662 3.443 3.69s-1.519 3.69-3.443 3.69c-1.89 0-3.443-1.662-3.443-3.69z" fill="#fff"/></svg>