<svg width="33" height="27" fill="none" xmlns="http://www.w3.org/2000/svg"><path d="M32.508 3.602c-1.21.61-2.422.813-3.835 1.017 1.413-.813 2.422-2.033 2.826-3.66-1.211.814-2.624 1.22-4.239 1.627-1.211-1.22-3.028-2.033-4.845-2.033-4.239 0-7.469 4.066-6.46 8.131-5.45-.203-10.294-2.846-13.726-6.911-1.817 3.049-.807 6.911 2.019 8.944-1.01 0-2.019-.407-3.028-.813 0 3.049 2.22 5.895 5.248 6.708-1.01.203-2.018.406-3.028.203.808 2.643 3.23 4.675 6.258 4.675-2.422 1.83-6.056 2.846-9.487 2.44 3.027 1.83 6.46 3.049 10.093 3.049 12.313 0 19.176-10.367 18.773-19.921a9.36 9.36 0 003.431-3.456z" fill="#fff"/></svg>