<svg width="25" height="24" viewBox="0 0 25 24" fill="none" xmlns="http://www.w3.org/2000/svg">
<path fill-rule="evenodd" clip-rule="evenodd" d="M23.9388 23.9205C24.187 24.1384 24.5164 23.8676 24.3004 23.5968C21.8693 20.5491 19.6215 19.9686 17.3794 19.4782C14.637 18.878 13.2257 17.3454 12.2431 15.6625C12.0474 15.3275 11.9594 15.3866 11.9419 15.8168C11.9204 16.3432 11.9565 17.0397 12.0756 17.7255C11.965 17.73 11.8533 17.7288 11.7416 17.7288C7.81805 17.7288 4.63732 14.5702 4.63732 10.6735C4.63732 6.77669 7.81805 3.6175 11.7416 3.6175C15.6652 3.6175 18.846 6.77613 18.846 10.6735C18.846 10.9505 18.8324 11.2247 18.8008 11.4932C18.2819 11.4003 17.261 11.3902 16.5446 11.4516C16.2755 11.4747 16.3133 11.5996 16.5164 11.6357C18.8657 12.058 20.4789 13.5027 20.8478 16.1259C20.8563 16.1861 20.9358 16.2041 20.9674 16.1518C21.9656 14.4984 22.4916 12.6039 22.4887 10.6735C22.4887 4.77848 17.6772 0 11.7416 0C5.80605 0 0.994629 4.77848 0.994629 10.6735C0.994629 16.5673 5.80605 21.3469 11.7416 21.3469C13.3165 21.3469 14.8784 21.0429 17.1713 21.0429C19.2307 21.0429 21.4655 21.7438 23.9388 23.9205ZM18.3417 18.3831C18.2007 18.5678 17.9734 18.6697 17.6998 18.6697C17.4319 18.6697 17.1583 18.5711 16.9688 18.4067C16.5339 18.0295 16.4064 17.4175 16.6901 17.0695C16.8007 16.9344 16.9812 16.859 17.1972 16.859C17.4595 16.859 17.7348 16.9687 17.9711 17.1675C18.4494 17.5689 18.595 18.0464 18.3417 18.3831ZM19.9493 16.8094C19.7857 16.8094 19.5815 16.6197 19.3401 16.2458C19.1015 15.8765 19.0146 15.4525 19.1325 15.2385C19.2103 15.0967 19.3739 15.0353 19.5798 15.1124C19.9786 15.2622 20.1354 15.8686 20.1777 16.1484C20.2476 16.6157 20.0987 16.8094 19.9493 16.8094Z" fill="#555F66"/>
</svg>
