<svg width="23" height="22" viewBox="0 0 23 22" fill="none" xmlns="http://www.w3.org/2000/svg">
<path d="M19.7989 4.29199C20.3216 4.96391 20.7572 5.70086 21.1275 6.48115L11.0648 13.8723L6.83936 11.2279V8.06341L11.043 10.6861L19.7989 4.29199Z" fill="#555F66"/>
<path d="M2.54834 11.0108C2.54834 10.8591 2.54834 10.729 2.57012 10.5773L0.0217807 10.4473C0.0217807 10.6207 0 10.8157 0 10.9891C0 14.0236 1.2415 16.7763 3.24532 18.7704L5.05311 16.9714C3.50669 15.4542 2.54834 13.3517 2.54834 11.0108Z" fill="#555F66"/>
<path d="M11.0426 2.55744C11.1951 2.55744 11.3257 2.55744 11.4782 2.57911L11.6089 0.0431592C11.4346 0.0431592 11.2386 0.0214844 11.0644 0.0214844C8.01508 0.0214844 5.24894 1.25695 3.24512 3.25103L5.05291 5.05005C6.57756 3.51113 8.71206 2.55744 11.0426 2.55744Z" fill="#555F66"/>
<path d="M11.0429 19.4633C10.8904 19.4633 10.7597 19.4633 10.6072 19.4416L10.4766 21.9776C10.6508 21.9776 10.8468 21.9993 11.0211 21.9993C14.0704 21.9993 16.8365 20.7638 18.8403 18.7697L17.0325 16.9707C15.5079 18.5313 13.3952 19.4633 11.0429 19.4633Z" fill="#555F66"/>
<path d="M15.8347 4.03152L17.991 2.44926C16.0961 0.932018 13.6784 0 11.043 0V2.53596C12.829 2.55763 14.4843 3.0995 15.8347 4.03152Z" fill="#555F66"/>
<path d="M22.1076 11.0105C22.1076 10.3386 22.0422 9.68833 21.9333 9.03809L19.5592 10.7937C19.5592 10.8588 19.5592 10.9455 19.5592 11.0105C19.5592 13.5031 18.4702 15.7356 16.7495 17.2745L18.4702 19.1602C20.6918 17.1661 22.1076 14.24 22.1076 11.0105Z" fill="#555F66"/>
<path d="M11.043 19.464C8.53827 19.464 6.29486 18.3803 4.74843 16.668L2.85352 18.3803C4.87912 20.6128 7.79773 22 11.043 22V19.464Z" fill="#555F66"/>
<path d="M5.35804 4.74704L3.63737 2.86133C1.39396 4.87709 0 7.78151 0 11.0111H2.54834C2.54834 8.54013 3.63737 6.28595 5.35804 4.74704Z" fill="#555F66"/>
</svg>
