<svg width="40" height="40" fill="none" xmlns="http://www.w3.org/2000/svg"><g clip-path="url(#clip0_57_8325)"><path fill-rule="evenodd" clip-rule="evenodd" d="M20 0C8.954 0 0 8.954 0 20c0 9.983 7.314 18.257 16.875 19.757V40h6.25v-.243C32.686 38.257 40 29.983 40 20 40 8.954 31.046 0 20 0zm3.125 39.757V25.781h4.66L28.672 20h-5.547v-3.75c0-1.582.773-3.125 3.258-3.125h2.523V8.203s-2.289-.39-4.476-.39c-4.57 0-7.555 2.769-7.555 7.78V20h-5.078v5.781h5.078v13.976a20.145 20.145 0 006.25 0z" fill="#0A0A0A"/></g><defs><clipPath id="clip0_57_8325"><path fill="#fff" d="M0 0h40v40H0z"/></clipPath></defs></svg>