<svg width="40" height="40" fill="none" xmlns="http://www.w3.org/2000/svg"><path fill-rule="evenodd" clip-rule="evenodd" d="M20 0C8.954 0 0 8.954 0 20s8.954 20 20 20 20-8.954 20-20S31.046 0 20 0zm-4.398 9.398c1.138-.052 1.501-.064 4.398-.064h-.003c2.898 0 3.26.012 4.398.064 1.135.052 1.911.232 2.591.495a5.214 5.214 0 011.889 1.23 5.235 5.235 0 011.231 1.89c.262.678.442 1.453.496 2.589.05 1.138.064 1.501.064 4.398s-.013 3.26-.064 4.398c-.054 1.135-.234 1.91-.496 2.589a5.236 5.236 0 01-1.231 1.889 5.217 5.217 0 01-1.888 1.231c-.679.264-1.455.444-2.59.496-1.138.051-1.5.064-4.398.064-2.897 0-3.26-.013-4.398-.064-1.135-.052-1.91-.232-2.59-.496a5.222 5.222 0 01-1.888-1.231 5.227 5.227 0 01-1.23-1.89c-.264-.678-.444-1.453-.496-2.589-.051-1.137-.064-1.5-.064-4.397 0-2.897.013-3.26.064-4.398.051-1.135.231-1.91.495-2.59a5.236 5.236 0 011.232-1.889 5.223 5.223 0 011.89-1.23c.677-.263 1.453-.443 2.588-.495z" fill="#151515"/><path fill-rule="evenodd" clip-rule="evenodd" d="M19.044 11.257h.957c2.848 0 3.186.01 4.31.06 1.04.049 1.605.222 1.981.368a3.3 3.3 0 011.226.798c.373.373.604.729.798 1.227.146.375.32.94.367 1.98.052 1.124.063 1.462.063 4.309 0 2.846-.011 3.184-.063 4.309-.047 1.04-.22 1.604-.367 1.98a3.299 3.299 0 01-.798 1.225 3.3 3.3 0 01-1.226.798c-.376.146-.94.32-1.98.367-1.125.051-1.463.063-4.31.063-2.849 0-3.186-.012-4.31-.063-1.04-.048-1.605-.222-1.982-.367a3.303 3.303 0 01-1.226-.798 3.306 3.306 0 01-.799-1.226c-.146-.376-.32-.94-.367-1.98-.05-1.125-.061-1.462-.061-4.311 0-2.848.01-3.184.061-4.309.048-1.04.222-1.604.367-1.98.194-.498.425-.854.799-1.227a3.311 3.311 0 011.226-.798c.376-.147.941-.32 1.981-.368.984-.044 1.365-.058 3.353-.06v.003zm6.65 1.77a1.28 1.28 0 100 2.561 1.28 1.28 0 000-2.56zm-11.17 6.974a5.478 5.478 0 1110.956 0 5.478 5.478 0 01-10.956 0z" fill="#151515"/><path d="M20 16.445a3.556 3.556 0 110 7.112 3.556 3.556 0 010-7.112z" fill="#151515"/></svg>