<svg width="40" height="40" fill="none" xmlns="http://www.w3.org/2000/svg"><path fill-rule="evenodd" clip-rule="evenodd" d="M20 0C8.954 0 0 8.954 0 20s8.954 20 20 20 20-8.954 20-20S31.046 0 20 0zm4.023 21.803c-1.091.382-2.321.813-4.478-1.344-2.157-2.156-1.728-3.386-1.346-4.478.304-.871.578-1.655-.518-2.75-.297-.297-.564-.578-.81-.836-1.727-1.819-2.416-2.544-5.063.103-.02.025-.054.058-.098.101-.63.616-3.306 3.23 4.58 11.115 7.885 7.882 10.498 5.206 11.114 4.575.043-.044.076-.079.1-.098 2.646-2.645 1.919-3.337.094-5.073a43.251 43.251 0 01-.826-.8c-1.096-1.095-1.878-.82-2.75-.515z" fill="#151515"/></svg>