<svg width="40" height="40" fill="none" xmlns="http://www.w3.org/2000/svg"><path fill-rule="evenodd" clip-rule="evenodd" d="M20 0C8.954 0 0 8.954 0 20s8.954 20 20 20 20-8.954 20-20S31.046 0 20 0zm-6.607 18.168c-2.004.875-4.063 1.774-5.945 2.81-.983.72.323 1.23 1.549 1.707.195.076.388.15.569.226.15.046.304.095.46.145 1.363.434 2.882.918 4.206.19 2.174-1.249 4.225-2.693 6.275-4.135.671-.473 1.343-.945 2.018-1.411l.107-.069c.575-.373 1.87-1.212 1.39-.056-1.131 1.238-2.344 2.334-3.563 3.436a77.56 77.56 0 00-2.451 2.281c-.701.57-1.43 1.716-.644 2.513a354.297 354.297 0 005.48 3.736c.597.402 1.194.803 1.79 1.206 1.01.806 2.59.154 2.811-1.106l.297-1.74c.548-3.203 1.097-6.408 1.58-9.623a100.1 100.1 0 01.216-1.513c.18-1.222.362-2.446.418-3.676-.145-1.226-1.633-.956-2.46-.68-4.255 1.618-8.466 3.357-12.662 5.127-.475.21-.957.42-1.441.632z" fill="#000"/></svg>