<svg width="20" height="20" fill="none" xmlns="http://www.w3.org/2000/svg"><mask id="a" style="mask-type:luminance" maskUnits="userSpaceOnUse" x="0" y="0" width="19" height="19"><path fill-rule="evenodd" clip-rule="evenodd" d="M.833.834h17.62v17.62H.834V.834z" fill="#fff"/></mask><g mask="url(#a)"><path fill-rule="evenodd" clip-rule="evenodd" d="M9.644 2.191c-4.11 0-7.453 3.343-7.453 7.453s3.343 7.454 7.453 7.454 7.453-3.344 7.453-7.454c0-4.11-3.344-7.453-7.453-7.453zm0 16.263c-4.858 0-8.81-3.952-8.81-8.81 0-4.858 3.952-8.81 8.81-8.81 4.858 0 8.81 3.952 8.81 8.81 0 4.858-3.952 8.81-8.81 8.81z" fill="#000"/></g><mask id="b" style="mask-type:luminance" maskUnits="userSpaceOnUse" x="14" y="15" width="6" height="5"><path fill-rule="evenodd" clip-rule="evenodd" d="M14.622 15.045h4.545v4.537h-4.545v-4.537z" fill="#fff"/></mask><g mask="url(#b)"><path fill-rule="evenodd" clip-rule="evenodd" d="M18.488 19.582a.68.68 0 01-.48-.198l-3.187-3.18a.679.679 0 01.959-.961l3.188 3.18a.678.678 0 01-.48 1.159z" fill="#000"/></g></svg>