<svg width="33" height="20" viewBox="0 0 33 20" fill="none" xmlns="http://www.w3.org/2000/svg">
<path d="M21.1904 2.1377H12.4404V17.8617H21.1904V2.1377Z" fill="#454E54"/>
<path d="M12.996 10C12.9947 8.48567 13.3378 6.99086 13.9995 5.62876C14.6613 4.26665 15.6242 3.07294 16.8155 2.138C15.3403 0.978459 13.5686 0.257355 11.7029 0.0571128C9.83726 -0.14313 7.9529 0.185562 6.26523 1.00563C4.57755 1.8257 3.15464 3.10406 2.15915 4.69459C1.16365 6.28511 0.635742 8.12363 0.635742 10C0.635742 11.8764 1.16365 13.7149 2.15915 15.3054C3.15464 16.8959 4.57755 18.1743 6.26523 18.9944C7.9529 19.8144 9.83726 20.1431 11.7029 19.9429C13.5686 19.7426 15.3403 19.0215 16.8155 17.862C15.6242 16.927 14.6613 15.7333 13.9996 14.3712C13.3378 13.0091 12.9947 11.5143 12.996 10Z" fill="#687178"/>
<path d="M32.9947 10C32.9947 11.8763 32.4669 13.7149 31.4714 15.3054C30.476 16.8959 29.0531 18.1743 27.3655 18.9943C25.6778 19.8144 23.7935 20.1431 21.9279 19.9429C20.0622 19.7426 18.2906 19.0215 16.8154 17.862C18.0056 16.9261 18.9678 15.7322 19.6294 14.3703C20.2911 13.0084 20.6348 11.5141 20.6348 10C20.6348 8.4859 20.2911 6.99157 19.6294 5.62968C18.9678 4.26779 18.0056 3.07389 16.8154 2.138C18.2906 0.978454 20.0622 0.25735 21.9279 0.0571102C23.7935 -0.14313 25.6778 0.185576 27.3655 1.00566C29.0531 1.82574 30.476 3.10409 31.4714 4.69462C32.4669 6.28514 32.9947 8.12365 32.9947 10Z" fill="#555F66"/>
<path d="M32.0406 16.1967V15.8748H32.1704V15.8092H31.8398V15.8748H31.9697V16.1967H32.0406ZM32.6824 16.1967V15.8086H32.5811L32.4645 16.0756L32.348 15.8086H32.2466V16.1967H32.3181V15.904L32.4274 16.1564H32.5016L32.6109 15.9033V16.1967H32.6824Z" fill="#555F66"/>
</svg>
