<svg width="52" height="16" viewBox="0 0 52 16" fill="none" xmlns="http://www.w3.org/2000/svg">
<path fill-rule="evenodd" clip-rule="evenodd" d="M46.6126 0.5H36.8008C37.3283 3.82143 40.4934 6.92857 43.975 6.92857H51.7822C51.8877 6.60714 51.8877 6.17857 51.8877 5.85714C51.8877 2.85714 49.5666 0.5 46.6126 0.5Z" fill="#555F66"/>
<path fill-rule="evenodd" clip-rule="evenodd" d="M37.645 7.46387V15.4996H42.3927V11.2139H46.6128C48.9338 11.2139 50.9384 9.60672 51.5714 7.46387H37.645Z" fill="#555F66"/>
<path fill-rule="evenodd" clip-rule="evenodd" d="M20.7642 0.5V15.5H24.9843C24.9843 15.5 26.0393 15.5 26.5668 14.4286C29.4154 8.64286 30.2594 6.92857 30.2594 6.92857H30.7869V15.5H35.5346V0.5H31.3145C31.3145 0.5 30.2594 0.607143 29.7319 1.57143C27.3053 6.5 26.0393 9.07143 26.0393 9.07143H25.5118V0.5H20.7642Z" fill="#555F66"/>
<path fill-rule="evenodd" clip-rule="evenodd" d="M0.71875 15.5V0.5H5.46638C5.46638 0.5 6.83792 0.5 7.57644 2.64286C9.47549 8.32143 9.6865 9.07143 9.6865 9.07143C9.6865 9.07143 10.1085 7.67857 11.7966 2.64286C12.5351 0.5 13.9066 0.5 13.9066 0.5H18.6542V15.5H13.9066V7.46429H13.3791L10.7415 15.5H8.63147L5.9939 7.46429H5.46638V15.5H0.71875Z" fill="#555F66"/>
</svg>
