<svg width="18" height="24" viewBox="0 0 18 24" fill="none" xmlns="http://www.w3.org/2000/svg">
<path d="M0.107422 5.78906L2.77162 10.5511V13.4559L0.110539 18.2086L0.107422 5.78906Z" fill="#555F66"/>
<path d="M10.3364 8.81709L12.8329 7.28699L17.942 7.28223L10.3364 11.9415V8.81709Z" fill="#555F66"/>
<path d="M10.3223 5.75866L10.3364 12.0635L7.66602 10.4227V0.998047L10.3223 5.75866Z" fill="#555F66"/>
<path d="M17.942 7.28106L12.8327 7.28582L10.3223 5.75866L7.66602 0.998047L17.942 7.28106Z" fill="#555F66"/>
<path d="M10.3364 18.235V15.1761L7.66602 13.5664L7.66748 23.0004L10.3364 18.235Z" fill="#555F66"/>
<path d="M12.8271 16.7188L2.77144 10.5511L0.107422 5.78906L17.9316 16.7126L12.8271 16.7188Z" fill="#555F66"/>
<path d="M7.66846 23.0016L10.3371 18.2363L12.8273 16.7201L17.9318 16.7139L7.66846 23.0016Z" fill="#555F66"/>
<path d="M0.109863 18.2031L7.68757 13.5611L5.13997 11.998L2.77094 13.4504L0.109863 18.2031Z" fill="#555F66"/>
</svg>
