<svg width="114" height="16" viewBox="0 0 114 16" fill="none" xmlns="http://www.w3.org/2000/svg">
<path d="M11.5377 15.0536V4.6666H17.6688V0.886954H0.942383V4.6666H7.07337V15.0536H11.5377ZM23.9198 0.886954H19.4554V15.0536H23.9198V0.886954ZM27.1866 0.886954V15.0536H31.2938V7.22629L38.9427 15.0536H42.7522V0.886954H38.645V8.65486L31.1747 0.886954H27.1866ZM51.5266 9.69648L56.6748 15.0536H62.4192L55.2468 7.6726L62.1514 0.886954H56.7354L51.5266 6.21429H50.3355V0.886954H46.0204V15.0536H50.3355V9.69648H51.5266ZM71.2992 0.5C65.4956 0.5 62.0136 3.77371 62.0136 8.00007C62.0136 12.2263 65.4956 15.5 71.2992 15.5C77.0732 15.5 80.5552 12.2263 80.5552 8.00007C80.5552 3.77371 77.0732 0.5 71.2992 0.5ZM71.2992 12.0477C68.4122 12.0477 66.5669 10.3214 66.5669 8.00007C66.5669 5.6786 68.4122 3.98219 71.2992 3.98219C74.1566 3.98219 76.0315 5.6786 76.0315 8.00007C76.0315 10.3214 74.1566 12.0477 71.2992 12.0477ZM96.9205 0.886954H82.6065V15.0536H86.9203V10.113H96.2973V6.98806H86.9203V4.488H96.9205V0.886954ZM113.169 0.886954H98.8521V15.0536H103.168V10.113H112.544V6.98806H103.168V4.488H113.169V0.886954Z" fill="#555F66"/>
</svg>
