<svg width="47" height="16" viewBox="0 0 47 16" fill="none" xmlns="http://www.w3.org/2000/svg">
<path d="M20.4547 15.2831H16.7002L19.0485 0.762695H22.8029L20.4547 15.2831Z" fill="#555F66"/>
<path d="M34.0653 1.11819C33.3247 0.824391 32.1501 0.5 30.6978 0.5C26.99 0.5 24.3791 2.47714 24.3631 5.30386C24.3323 7.38941 26.2324 8.54777 27.6536 9.24316C29.1062 9.95374 29.6 10.4175 29.6 11.0509C29.5852 12.0237 28.4262 12.4721 27.3452 12.4721C25.8463 12.4721 25.0431 12.2409 23.8225 11.6997L23.3281 11.4677L22.8027 14.7272C23.6833 15.1284 25.3057 15.4844 26.99 15.5C30.9295 15.5 33.4943 13.5534 33.5247 10.5411C33.5397 8.88818 32.5363 7.62161 30.3732 6.58664C29.06 5.92226 28.2558 5.47427 28.2558 4.79448C28.2712 4.1765 28.936 3.54353 30.4183 3.54353C31.6389 3.51252 32.5357 3.80591 33.2151 4.09951L33.5547 4.2537L34.0653 1.11819Z" fill="#555F66"/>
<path d="M39.0554 10.139C39.3646 9.30485 40.5544 6.07634 40.5544 6.07634C40.5388 6.10734 40.863 5.22676 41.0484 4.68618L41.3108 5.93735C41.3108 5.93735 42.0218 9.41305 42.1762 10.139C41.5894 10.139 39.797 10.139 39.0554 10.139ZM43.6899 0.762695H40.7858C39.8902 0.762695 39.2098 1.02508 38.8234 1.96746L33.2466 15.2829H37.1861C37.1861 15.2829 37.8347 13.4907 37.9741 13.1047C38.4062 13.1047 42.2386 13.1047 42.7946 13.1047C42.9023 13.6145 43.2425 15.2829 43.2425 15.2829H46.7189L43.6899 0.762695Z" fill="#555F66"/>
<path d="M13.5645 0.762695L9.88759 10.6642L9.48579 8.65607C8.80601 6.33893 6.67406 3.82141 4.29492 2.56963L7.66284 15.2677H11.6331L17.5346 0.762695H13.5645Z" fill="#555F66"/>
<path d="M6.47305 0.762695H0.432404L0.370605 1.05608C5.08269 2.26105 8.20341 5.16558 9.48558 8.65668L8.17241 1.98327C7.95622 1.05588 7.29183 0.793287 6.47305 0.762695Z" fill="#555F66"/>
</svg>
