<svg width="37" height="26" viewBox="0 0 37 26" fill="none" xmlns="http://www.w3.org/2000/svg">
<path d="M23.5913 0C16.3598 0 10.5488 5.85 10.5488 13C10.5488 20.2089 16.417 26 23.5896 26C30.7621 26 36.6355 20.15 36.6355 13C36.6355 5.85 30.7638 0 23.5913 0ZM23.5913 17.8455C20.9237 17.8455 18.731 15.6589 18.731 13C18.731 10.3411 20.9237 8.15447 23.5913 8.15447C26.2589 8.15447 28.4524 10.3411 28.4524 13C28.3926 15.6589 26.2589 17.8455 23.5913 17.8455Z" fill="#555F66"/>
<path d="M10.5491 3.77734V22.6863H5.928L0 3.77734H10.5491Z" fill="#555F66"/>
</svg>
